<?xml version="1.0" encoding="UTF-8" standalone="no"?>
<svg
   xmlns:dc="http://purl.org/dc/elements/1.1/"
   xmlns:cc="http://creativecommons.org/ns#"
   xmlns:rdf="http://www.w3.org/1999/02/22-rdf-syntax-ns#"
   xmlns:svg="http://www.w3.org/2000/svg"
   xmlns="http://www.w3.org/2000/svg"
   xmlns:sodipodi="http://sodipodi.sourceforge.net/DTD/sodipodi-0.dtd"
   xmlns:inkscape="http://www.inkscape.org/namespaces/inkscape"
   sodipodi:docname="botao.svg"
   inkscape:version="1.0 (4035a4fb49, 2020-05-01)"
   id="svg8"
   version="1.1"
   viewBox="0 0 140 50"
   height="50mm"
   width="140mm">
  <defs
     id="defs2" />
  <sodipodi:namedview
     inkscape:window-maximized="1"
     inkscape:window-y="-8"
     inkscape:window-x="-8"
     inkscape:window-height="702"
     inkscape:window-width="1366"
     inkscape:guide-bbox="true"
     showguides="true"
     showgrid="false"
     inkscape:document-rotation="0"
     inkscape:current-layer="layer1"
     inkscape:document-units="mm"
     inkscape:cy="94.488189"
     inkscape:cx="264.56693"
     inkscape:zoom="0.7"
     inkscape:pageshadow="2"
     inkscape:pageopacity="0.0"
     borderopacity="1.0"
     bordercolor="#666666"
     pagecolor="#ffffff"
     id="base" />
  <metadata
     id="metadata5">
    <rdf:RDF>
      <cc:Work
         rdf:about="">
        <dc:format>image/svg+xml</dc:format>
        <dc:type
           rdf:resource="http://purl.org/dc/dcmitype/StillImage" />
        <dc:title></dc:title>
      </cc:Work>
    </rdf:RDF>
  </metadata>
  <g
     id="layer1"
     inkscape:groupmode="layer"
     inkscape:label="Layer 1">
    <path
       d="m 26.283846,7.576779 h 89.019824 c 8.89739,0 16.06027,8.124769 16.06027,18.216971 0,10.092201 -7.16288,18.21697 -16.06027,18.21697 H 26.283846 c -8.897397,0 -16.06028,-8.124769 -16.06028,-18.21697 0,-10.092202 7.162883,-18.216971 16.06028,-18.216971 z"
       style="opacity:0.2;fill:#000000;fill-opacity:1;stroke:none;stroke-width:0.600923;stroke-linecap:round;stroke-linejoin:round;stroke-miterlimit:4;stroke-dasharray:none;stroke-opacity:1;paint-order:stroke fill markers"
       id="rect970" />
    <path
       d="m 24.696336,5.98928 h 89.019834 c 8.89739,0 16.06027,8.124768 16.06027,18.21697 0,10.092202 -7.16288,18.21697 -16.06027,18.21697 H 24.696336 c -8.897389,0 -16.060272,-8.124768 -16.060272,-18.21697 0,-10.092202 7.162883,-18.21697 16.060272,-18.21697 z"
       style="fill:#723d46;fill-opacity:1;stroke:none;stroke-width:0.600923;stroke-linecap:round;stroke-linejoin:round;stroke-miterlimit:4;stroke-dasharray:none;stroke-opacity:1;paint-order:stroke fill markers"
       id="rect964" />
    <g
       transform="translate(-78.204474,-7.54375)"
       style="font-size:22.5778px;line-height:1.25;font-family:Oswald;-inkscape-font-specification:Oswald;fill:#ffe1a8;fill-opacity:1;stroke-width:0.264583"
       id="text968"
       aria-label="cardápio">
      <path
         id="path974"
         style="fill:#ffe1a8;fill-opacity:1;stroke-width:0.264583"
         d="m 116.96155,39.087784 q -1.60302,0 -2.4384,-0.632178 -0.8128,-0.654757 -1.10631,-1.828802 -0.27094,-1.174046 -0.27094,-2.731914 v -3.002848 q 0,-1.648179 0.29351,-2.799647 0.29351,-1.174045 1.10632,-1.783646 0.83537,-0.632179 2.41582,-0.632179 1.4224,0 2.19005,0.474134 0.79022,0.451556 1.08373,1.377246 0.29351,0.903112 0.29351,2.25778 v 0.767645 h -2.19004 v -0.790223 q 0,-0.857956 -0.11289,-1.354668 -0.11289,-0.496711 -0.4064,-0.722489 -0.29351,-0.225778 -0.83538,-0.225778 -0.58702,0 -0.90311,0.270933 -0.31609,0.270934 -0.42898,0.92569 -0.0903,0.632179 -0.0903,1.738491 v 4.10916 q 0,1.670757 0.31609,2.235202 0.31608,0.564445 1.12889,0.564445 0.6096,0 0.88053,-0.270934 0.29351,-0.293511 0.36124,-0.812801 0.0903,-0.519289 0.0903,-1.174045 v -1.061157 h 2.19004 v 0.903112 q 0,1.309513 -0.31609,2.25778 -0.29351,0.948268 -1.08373,1.44498 -0.76765,0.496711 -2.16747,0.496711 z" />
      <path
         id="path976"
         style="fill:#ffe1a8;fill-opacity:1;stroke-width:0.264583"
         d="m 125.00278,39.087784 q -0.76765,0 -1.35467,-0.428978 -0.58703,-0.451556 -0.92569,-1.12889 -0.33867,-0.699912 -0.33867,-1.467557 0,-1.219201 0.4064,-2.05458 0.4064,-0.835379 1.10631,-1.399824 0.72249,-0.587023 1.64818,-1.016001 0.94827,-0.428978 1.98685,-0.835378 v -0.92569 q 0,-0.790223 -0.0903,-1.309513 -0.0903,-0.519289 -0.38382,-0.767645 -0.27094,-0.270933 -0.83538,-0.270933 -0.49671,0 -0.8128,0.225778 -0.29352,0.225778 -0.42898,0.654756 -0.13547,0.4064 -0.13547,0.970845 v 0.654756 l -2.39325,-0.09031 q 0.0452,-2.167469 0.99343,-3.18347 0.94826,-1.038579 2.93511,-1.038579 1.94169,0 2.75449,1.061157 0.8128,1.061157 0.8128,3.070581 v 5.960539 q 0,0.609601 0.0226,1.174046 0.0452,0.564445 0.0903,1.061157 0.0677,0.474133 0.11289,0.903112 h -2.21262 q -0.0677,-0.361245 -0.18063,-0.903112 -0.0903,-0.564445 -0.13546,-1.016001 -0.22578,0.767645 -0.88054,1.444979 -0.63217,0.654756 -1.76106,0.654756 z m 0.94826,-2.077158 q 0.36125,0 0.67734,-0.2032 0.31609,-0.2032 0.56444,-0.451556 0.24836,-0.270933 0.33867,-0.428978 v -3.702759 q -0.56445,0.316089 -1.06116,0.632178 -0.49671,0.316089 -0.88053,0.677334 -0.36125,0.338667 -0.58702,0.790223 -0.2032,0.428978 -0.2032,0.993423 0,0.790223 0.29351,1.241779 0.29351,0.451556 0.85795,0.451556 z" />
      <path
         id="path978"
         style="fill:#ffe1a8;fill-opacity:1;stroke-width:0.264583"
         d="M 132.33562,38.907162 V 25.857193 h 2.41583 v 1.85138 q 0.72249,-1.196624 1.44498,-1.603024 0.72249,-0.406401 1.44497,-0.406401 0.0903,0 0.15805,0 0.0903,0 0.22578,0.02258 v 2.664181 q -0.27094,-0.112889 -0.63218,-0.180623 -0.33867,-0.09031 -0.69991,-0.09031 -0.56445,0 -1.03858,0.270934 -0.45156,0.248355 -0.90311,0.993423 v 9.527832 z" />
      <path
         id="path980"
         style="fill:#ffe1a8;fill-opacity:1;stroke-width:0.264583"
         d="m 142.52527,39.087784 q -1.64818,0 -2.46098,-1.196623 -0.8128,-1.219202 -0.8128,-4.10916 v -2.528714 q 0,-1.490135 0.24835,-2.754491 0.24836,-1.286935 0.92569,-2.05458 0.69991,-0.767646 2.032,-0.767646 0.65476,0 1.19663,0.293512 0.54186,0.293511 0.97084,0.72249 v -6.073429 h 2.41583 V 38.907162 H 144.625 v -0.835379 q -0.42898,0.451556 -0.94827,0.745068 -0.49671,0.270933 -1.15146,0.270933 z m 0.6096,-1.896535 q 0.33866,0 0.72249,-0.112889 0.38382,-0.135467 0.76764,-0.383823 v -8.556986 q -0.31609,-0.225778 -0.69991,-0.383823 -0.38382,-0.180622 -0.83538,-0.180622 -0.83538,0 -1.12889,0.812801 -0.29351,0.790223 -0.29351,1.919113 v 3.680181 q 0,0.903112 0.0903,1.64818 0.11289,0.722489 0.42898,1.151467 0.31609,0.406401 0.94827,0.406401 z" />
      <path
         id="path982"
         style="fill:#ffe1a8;fill-opacity:1;stroke-width:0.264583"
         d="m 151.81391,39.087784 q -0.76764,0 -1.35467,-0.428978 -0.58702,-0.451556 -0.92569,-1.12889 -0.33866,-0.699912 -0.33866,-1.467557 0,-1.219201 0.4064,-2.05458 0.4064,-0.835379 1.10631,-1.399824 0.72249,-0.587023 1.64818,-1.016001 0.94827,-0.428978 1.98685,-0.835378 v -0.92569 q 0,-0.790223 -0.0903,-1.309513 -0.0903,-0.519289 -0.38383,-0.767645 -0.27093,-0.270933 -0.83538,-0.270933 -0.49671,0 -0.8128,0.225778 -0.29351,0.225778 -0.42898,0.654756 -0.13546,0.4064 -0.13546,0.970845 v 0.654756 l -2.39325,-0.09031 q 0.0452,-2.167469 0.99342,-3.18347 0.94827,-1.038579 2.93512,-1.038579 1.94169,0 2.75449,1.061157 0.8128,1.061157 0.8128,3.070581 v 5.960539 q 0,0.609601 0.0226,1.174046 0.0452,0.564445 0.0903,1.061157 0.0677,0.474133 0.11289,0.903112 h -2.21263 q -0.0677,-0.361245 -0.18062,-0.903112 -0.0903,-0.564445 -0.13546,-1.016001 -0.22578,0.767645 -0.88054,1.444979 -0.63218,0.654756 -1.76107,0.654756 z m 0.94827,-2.077158 q 0.36125,0 0.67733,-0.2032 0.31609,-0.2032 0.56445,-0.451556 0.24836,-0.270933 0.33867,-0.428978 v -3.702759 q -0.56445,0.316089 -1.06116,0.632178 -0.49671,0.316089 -0.88053,0.677334 -0.36125,0.338667 -0.58703,0.790223 -0.2032,0.428978 -0.2032,0.993423 0,0.790223 0.29351,1.241779 0.29352,0.451556 0.85796,0.451556 z m -0.2032,-12.237168 1.33209,-4.470404 h 2.41583 l -2.52872,4.470404 z" />
      <path
         id="path984"
         style="fill:#ffe1a8;fill-opacity:1;stroke-width:0.264583"
         d="M 159.07903,43.196944 V 25.857193 h 2.41582 v 1.038579 q 0.42898,-0.496712 1.03858,-0.857957 0.6096,-0.361245 1.44498,-0.361245 1.016,0 1.60302,0.541868 0.6096,0.519289 0.90312,1.33209 0.29351,0.790223 0.38382,1.625602 0.0903,0.8128 0.0903,1.399823 v 3.160892 q 0,1.377246 -0.27093,2.619025 -0.27094,1.219201 -0.99343,1.986847 -0.69991,0.745067 -1.98684,0.745067 -0.69992,0 -1.24178,-0.338667 -0.54187,-0.361245 -0.97085,-0.812801 v 5.260628 z m 4.15431,-6.005695 q 0.63218,0 0.90311,-0.451556 0.27094,-0.474134 0.33867,-1.264357 0.0677,-0.790223 0.0677,-1.738491 v -3.160892 q 0,-0.812801 -0.0903,-1.490135 -0.0903,-0.699911 -0.38382,-1.106312 -0.29351,-0.4064 -0.92569,-0.4064 -0.47413,0 -0.90311,0.2032 -0.42898,0.2032 -0.74507,0.474134 v 8.353786 q 0.33867,0.248356 0.76765,0.428978 0.42897,0.158045 0.97084,0.158045 z" />
      <path
         id="path986"
         style="fill:#ffe1a8;fill-opacity:1;stroke-width:0.264583"
         d="M 169.29125,38.907162 V 25.857193 h 2.41582 v 13.049969 z m 0,-14.99166 v -2.528714 h 2.41582 v 2.528714 z" />
      <path
         id="path988"
         style="fill:#ffe1a8;fill-opacity:1;stroke-width:0.264583"
         d="m 177.88245,39.087784 q -1.44497,0 -2.28035,-0.587023 -0.83538,-0.587023 -1.19663,-1.670757 -0.33866,-1.083734 -0.33866,-2.551291 v -3.793071 q 0,-1.467557 0.33866,-2.551291 0.36125,-1.083735 1.19663,-1.670758 0.83538,-0.587023 2.28035,-0.587023 1.44498,0 2.25778,0.587023 0.83538,0.587023 1.17405,1.670758 0.36125,1.083734 0.36125,2.551291 v 3.793071 q 0,1.467557 -0.36125,2.551291 -0.33867,1.083734 -1.17405,1.670757 -0.8128,0.587023 -2.25778,0.587023 z m 0,-1.783646 q 0.69992,0 0.97085,-0.406401 0.29351,-0.4064 0.33867,-1.061156 0.0677,-0.677334 0.0677,-1.399824 v -4.086582 q 0,-0.745067 -0.0677,-1.399823 -0.0452,-0.654757 -0.33867,-1.061157 -0.27093,-0.428978 -0.97085,-0.428978 -0.69991,0 -0.99342,0.428978 -0.29351,0.4064 -0.36124,1.061157 -0.0452,0.654756 -0.0452,1.399823 v 4.086582 q 0,0.72249 0.0452,1.399824 0.0677,0.654756 0.36124,1.061156 0.29351,0.406401 0.99342,0.406401 z" />
    </g>
  </g>
</svg>
