<?xml version="1.0" encoding="UTF-8" standalone="no"?>
<svg
   xmlns:dc="http://purl.org/dc/elements/1.1/"
   xmlns:cc="http://creativecommons.org/ns#"
   xmlns:rdf="http://www.w3.org/1999/02/22-rdf-syntax-ns#"
   xmlns:svg="http://www.w3.org/2000/svg"
   xmlns="http://www.w3.org/2000/svg"
   xmlns:sodipodi="http://sodipodi.sourceforge.net/DTD/sodipodi-0.dtd"
   xmlns:inkscape="http://www.inkscape.org/namespaces/inkscape"
   sodipodi:docname="logo1.svg"
   inkscape:version="1.0 (4035a4fb49, 2020-05-01)"
   id="svg8"
   version="1.1"
   viewBox="0 0 100 60"
   height="60mm"
   width="100mm">
  <defs
     id="defs2" />
  <sodipodi:namedview
     inkscape:window-maximized="1"
     inkscape:window-y="-8"
     inkscape:window-x="-8"
     inkscape:window-height="702"
     inkscape:window-width="1366"
     inkscape:guide-bbox="true"
     showguides="true"
     showgrid="false"
     inkscape:document-rotation="0"
     inkscape:current-layer="layer1"
     inkscape:document-units="mm"
     inkscape:cy="113.38583"
     inkscape:cx="188.97638"
     inkscape:zoom="0.98994949"
     inkscape:pageshadow="2"
     inkscape:pageopacity="0.0"
     borderopacity="1.0"
     bordercolor="#666666"
     pagecolor="#ffffff"
     id="base" />
  <metadata
     id="metadata5">
    <rdf:RDF>
      <cc:Work
         rdf:about="">
        <dc:format>image/svg+xml</dc:format>
        <dc:type
           rdf:resource="http://purl.org/dc/dcmitype/StillImage" />
        <dc:title></dc:title>
      </cc:Work>
    </rdf:RDF>
  </metadata>
  <g
     id="layer1"
     inkscape:groupmode="layer"
     inkscape:label="Layer 1">
    <g
       transform="translate(-58.77488,-60.225228)"
       style="font-size:22.5778px;line-height:0;font-family:Merriweather;-inkscape-font-specification:Merriweather;stroke-width:0.264583"
       id="text835"
       aria-label="Empório
    jovem">
      <path
         id="path851"
         style="font-style:normal;font-variant:normal;font-weight:300;font-stretch:normal;font-size:22.5778px;line-height:1.05;font-family:Merriweather;-inkscape-font-specification:'Merriweather Light';fill:#472d30;fill-opacity:1;stroke-width:0.264583"
         d="M 64.302724,69.110559 62.406189,68.862204 V 67.891358 H 73.5822 l 0.31609,3.318937 h -1.083735 l -0.6096,-2.167469 -6.050851,-0.112889 v 6.57014 l 4.154315,-0.06773 0.293512,-1.873958 h 1.12889 v 4.989694 h -1.12889 L 70.308419,76.62897 66.154104,76.56124 v 6.953962 l 6.908807,-0.180622 1.151468,-2.822225 1.083734,0.338667 -0.699912,3.815648 H 62.361033 v -0.970845 l 1.941691,-0.203201 z" />
      <path
         id="path853"
         style="font-style:normal;font-variant:normal;font-weight:300;font-stretch:normal;font-size:22.5778px;line-height:1.05;font-family:Merriweather;-inkscape-font-specification:'Merriweather Light';fill:#472d30;fill-opacity:1;stroke-width:0.264583"
         d="m 76.86586,83.695819 1.444979,-0.180623 V 73.62612 l -1.738491,-0.383823 v -1.016001 l 2.867381,-0.361245 0.496712,0.361245 v 0.993423 l -0.02258,0.564445 q 0.835378,-0.722489 2.190047,-1.33209 1.354668,-0.609601 2.46098,-0.609601 1.219201,0 1.941691,0.406401 0.745067,0.4064 1.12889,1.264357 0.699912,-0.587023 2.032002,-1.12889 1.354668,-0.541868 2.483558,-0.541868 1.422401,0 2.190047,0.541868 0.790223,0.541867 1.106312,1.670757 0.316089,1.12889 0.316089,3.048003 v 6.412095 l 1.715913,0.180623 v 0.970845 h -5.057428 v -0.970845 l 1.535291,-0.180623 v -6.344362 q 0,-1.422401 -0.2032,-2.25778 -0.2032,-0.835378 -0.790223,-1.264357 -0.587023,-0.428978 -1.715913,-0.428978 -0.835379,0 -1.761069,0.383823 -0.903112,0.361245 -1.557868,0.835378 0.225778,1.038579 0.225778,2.709336 v 6.36694 l 1.715913,0.180623 v 0.970845 h -5.170316 v -0.970845 l 1.625601,-0.180623 v -6.389517 q 0,-1.44498 -0.180622,-2.25778 -0.158045,-0.812801 -0.699912,-1.219202 -0.541867,-0.4064 -1.603024,-0.4064 -0.880534,0 -1.919113,0.451556 -1.016001,0.428978 -1.783646,1.038579 v 8.782764 l 1.603024,0.180623 v 0.970845 H 76.86586 Z" />
      <path
         id="path855"
         style="font-style:normal;font-variant:normal;font-weight:300;font-stretch:normal;font-size:22.5778px;line-height:1.05;font-family:Merriweather;-inkscape-font-specification:'Merriweather Light';fill:#472d30;fill-opacity:1;stroke-width:0.264583"
         d="m 111.14743,77.938479 q 0,1.941691 -0.79022,3.544715 -0.79023,1.580446 -2.25778,2.506136 -1.44498,0.92569 -3.31894,0.92569 -0.63218,0 -1.33209,-0.112889 -0.69991,-0.09031 -1.15147,-0.248356 l 0.0452,1.919113 v 2.438403 l 2.50613,0.225778 v 0.993423 H 98.797414 V 89.137069 L 100.5359,88.911291 V 73.62612 l -1.761064,-0.383823 v -1.016001 l 2.889954,-0.361245 h 0.0452 l 0.4064,0.361245 v 1.377246 q 0.72249,-0.745068 1.76107,-1.264357 1.03858,-0.541867 2.32551,-0.541867 1.30951,0 2.4384,0.654756 1.12889,0.654756 1.80623,2.032002 0.69991,1.377246 0.69991,3.454403 z m -5.68961,-4.763915 q -0.97084,0 -1.80622,0.4064 -0.83538,0.4064 -1.30951,0.903112 v 8.602142 q 0.18062,0.293511 0.90311,0.541867 0.74507,0.225778 1.6256,0.225778 1.94169,0 3.11574,-1.422401 1.19662,-1.444979 1.19662,-4.244627 0,-2.506136 -1.06115,-3.747915 -1.03858,-1.264356 -2.66419,-1.264356 z" />
      <path
         id="path857"
         style="font-style:normal;font-variant:normal;font-weight:300;font-stretch:normal;font-size:22.5778px;line-height:1.05;font-family:Merriweather;-inkscape-font-specification:'Merriweather Light';fill:#472d30;fill-opacity:1;stroke-width:0.264583"
         d="m 113.18049,78.322302 q 0,-1.964269 0.8128,-3.454403 0.83538,-1.490135 2.16747,-2.280358 1.35466,-0.790223 2.82222,-0.790223 2.8448,0 4.19947,1.851379 1.37725,1.85138 1.37725,4.741339 0,1.964268 -0.83538,3.454403 -0.8128,1.490135 -2.16747,2.280358 -1.33209,0.790223 -2.79965,0.790223 -2.8448,0 -4.22204,-1.85138 -1.35467,-1.851379 -1.35467,-4.741338 z m 5.6896,5.418672 q 1.73849,0 2.68676,-1.33209 0.94827,-1.33209 0.94827,-3.883382 0,-2.438402 -0.88054,-3.99627 -0.88053,-1.557869 -2.73191,-1.557869 -1.73849,0 -2.70934,1.332091 -0.94826,1.33209 -0.94826,3.883381 0,2.460981 0.88053,4.018849 0.90311,1.53529 2.75449,1.53529 z m -1.51271,-14.562681 3.49956,-4.357516 1.53529,1.241779 q -0.45156,0.677334 -2.00942,2.032002 -1.5353,1.332091 -2.32552,1.693335 z" />
      <path
         id="path859"
         style="font-style:normal;font-variant:normal;font-weight:300;font-stretch:normal;font-size:22.5778px;line-height:1.05;font-family:Merriweather;-inkscape-font-specification:'Merriweather Light';fill:#472d30;fill-opacity:1;stroke-width:0.264583"
         d="m 126.72047,83.718396 1.80622,-0.135466 v -9.95681 l -1.73849,-0.383823 v -1.016001 l 2.86738,-0.361245 h 0.0452 l 0.42897,0.361245 v 0.361245 l -0.0451,1.715913 h 0.0451 q 0.0452,-0.04516 0.58703,-0.677334 0.56444,-0.654757 1.64818,-1.241779 1.10631,-0.587023 2.21262,-0.587023 0.36125,0 0.67734,0.09031 v 1.986846 q -0.0903,-0.06773 -0.4064,-0.135466 -0.29352,-0.06773 -0.63218,-0.06773 -1.28694,0 -2.19005,0.383823 -0.90311,0.383822 -1.67076,0.948267 v 8.556987 l 3.00285,0.180622 v 0.92569 h -6.63787 z" />
      <path
         id="path861"
         style="font-style:normal;font-variant:normal;font-weight:300;font-stretch:normal;font-size:22.5778px;line-height:1.05;font-family:Merriweather;-inkscape-font-specification:'Merriweather Light';fill:#472d30;fill-opacity:1;stroke-width:0.264583"
         d="m 139.41413,69.765316 q -1.2192,0 -1.2192,-1.286935 0,-0.654756 0.38382,-1.061157 0.38382,-0.428978 1.03858,-0.428978 0.67733,0 0.97085,0.383823 0.29351,0.361245 0.29351,0.903112 0,0.699912 -0.38382,1.106312 -0.36125,0.383823 -1.06116,0.383823 z m -0.72249,3.860804 -1.76107,-0.383823 v -1.016001 l 3.09316,-0.361245 h 0.0452 l 0.45155,0.361245 v 11.311478 l 1.96427,0.158045 v 0.970845 h -5.77992 v -0.970845 l 1.98685,-0.180623 z" />
      <path
         id="path863"
         style="font-style:normal;font-variant:normal;font-weight:300;font-stretch:normal;font-size:22.5778px;line-height:1.05;font-family:Merriweather;-inkscape-font-specification:'Merriweather Light';fill:#472d30;fill-opacity:1;stroke-width:0.264583"
         d="m 144.09267,78.322302 q 0,-1.964269 0.8128,-3.454403 0.83538,-1.490135 2.16747,-2.280358 1.35467,-0.790223 2.82223,-0.790223 2.8448,0 4.19947,1.851379 1.37724,1.85138 1.37724,4.741339 0,1.964268 -0.83537,3.454403 -0.81281,1.490135 -2.16747,2.280358 -1.33209,0.790223 -2.79965,0.790223 -2.8448,0 -4.22205,-1.85138 -1.35467,-1.851379 -1.35467,-4.741338 z m 5.68961,5.418672 q 1.73849,0 2.68676,-1.33209 0.94826,-1.33209 0.94826,-3.883382 0,-2.438402 -0.88053,-3.99627 -0.88053,-1.557869 -2.73191,-1.557869 -1.73849,0 -2.70934,1.332091 -0.94827,1.33209 -0.94827,3.883381 0,2.460981 0.88054,4.018849 0.90311,1.53529 2.75449,1.53529 z" />
      <path
         id="path865"
         style="font-style:normal;font-variant:normal;font-weight:600;font-stretch:normal;font-size:31.75px;line-height:0.65;font-family:Oswald;-inkscape-font-specification:'Oswald Semi-Bold';fill:#723d46;fill-opacity:1"
         d="m 84.060415,115.62968 q -0.66675,0 -1.3335,-0.0952 -0.635,-0.0953 -1.2065,-0.28575 v -3.429 q 0.1905,0.0317 0.4445,0.0635 0.254,0.0318 0.47625,0.0318 0.508,0 0.8255,-0.1905 0.3175,-0.15875 0.47625,-0.53975 0.1905,-0.381 0.1905,-0.9525 V 91.785426 h 4.79425 v 19.018254 q 0,2.159 -1.2065,3.4925 -1.17475,1.3335 -3.46075,1.3335 z m -0.127,-26.860504 v -3.58775 h 4.79425 v 3.58775 z" />
      <path
         id="path867"
         style="font-style:normal;font-variant:normal;font-weight:600;font-stretch:normal;font-size:31.75px;line-height:0.65;font-family:Oswald;-inkscape-font-specification:'Oswald Semi-Bold';fill:#723d46;fill-opacity:1"
         d="m 97.826521,110.45443 q -1.9685,0 -3.3655,-0.6985 -1.397,-0.73025 -2.12725,-2.0955 -0.6985,-1.36525 -0.6985,-3.39725 v -6.604004 q 0,-2.032 0.6985,-3.39725 0.73025,-1.36525 2.12725,-2.06375 1.397,-0.73025 3.3655,-0.73025 1.9685,0 3.365499,0.73025 1.397,0.6985 2.12725,2.06375 0.73025,1.36525 0.73025,3.39725 v 6.604004 q 0,2.032 -0.73025,3.39725 -0.73025,1.36525 -2.12725,2.0955 -1.396999,0.6985 -3.365499,0.6985 z m 0.03175,-3.2385 q 0.60325,0 0.92075,-0.3175 0.3175,-0.34925 0.41275,-0.92075 0.09525,-0.60325 0.09525,-1.36525 v -7.270754 q 0,-0.79375 -0.09525,-1.36525 -0.09525,-0.5715 -0.41275,-0.92075 -0.3175,-0.34925 -0.92075,-0.34925 -0.60325,0 -0.92075,0.34925 -0.3175,0.34925 -0.4445,0.92075 -0.09525,0.5715 -0.09525,1.36525 v 7.270754 q 0,0.762 0.09525,1.36525 0.127,0.5715 0.4445,0.92075 0.3175,0.3175 0.92075,0.3175 z" />
      <path
         id="path869"
         style="font-style:normal;font-variant:normal;font-weight:600;font-stretch:normal;font-size:31.75px;line-height:0.65;font-family:Oswald;-inkscape-font-specification:'Oswald Semi-Bold';fill:#723d46;fill-opacity:1"
         d="m 109.34234,110.13693 -3.683,-18.351504 h 4.6355 l 1.68275,12.350754 1.5875,-12.350754 h 4.60375 l -3.71475,18.351504 z" />
      <path
         id="path871"
         style="font-style:normal;font-variant:normal;font-weight:600;font-stretch:normal;font-size:31.75px;line-height:0.65;font-family:Oswald;-inkscape-font-specification:'Oswald Semi-Bold';fill:#723d46;fill-opacity:1"
         d="m 125.82407,110.45443 q -2.032,0 -3.39725,-0.73025 -1.36525,-0.762 -2.06375,-2.19075 -0.6985,-1.4605 -0.6985,-3.4925 v -6.159504 q 0,-2.0955 0.6985,-3.4925 0.6985,-1.42875 2.0955,-2.159 1.397,-0.762 3.3655,-0.762 2.0955,0 3.39725,0.762 1.30175,0.762 1.905,2.2225 0.635,1.4605 0.635,3.556 v 3.206754 h -7.366 v 3.556 q 0,0.79375 0.15875,1.30175 0.1905,0.508 0.508,0.73025 0.3175,0.1905 0.79375,0.1905 0.4445,0 0.762,-0.1905 0.34925,-0.22225 0.508,-0.66675 0.15875,-0.4445 0.15875,-1.17475 v -1.74625 h 4.445 v 1.524 q 0,2.794 -1.524,4.2545 -1.524,1.4605 -4.3815,1.4605 z m -1.42875,-11.525254 h 2.88925 v -1.80975 q 0,-0.79375 -0.15875,-1.27 -0.15875,-0.508 -0.508,-0.6985 -0.3175,-0.22225 -0.8255,-0.22225 -0.47625,0 -0.79375,0.22225 -0.28575,0.22225 -0.4445,0.79375 -0.15875,0.53975 -0.15875,1.55575 z" />
      <path
         id="path873"
         style="font-style:normal;font-variant:normal;font-weight:600;font-stretch:normal;font-size:31.75px;line-height:0.65;font-family:Oswald;-inkscape-font-specification:'Oswald Semi-Bold';fill:#723d46;fill-opacity:1"
         d="M 134.68033,110.13693 V 91.785426 h 4.66725 v 1.524 q 0.98425,-1.016 2.06375,-1.42875 1.11125,-0.4445 2.25425,-0.4445 1.11125,0 1.905,0.5715 0.8255,0.53975 1.2065,1.651 1.0795,-1.2065 2.25425,-1.7145 1.17475,-0.508 2.413,-0.508 1.016,0 1.80975,0.508 0.79375,0.508 1.23825,1.49225 0.4445,0.98425 0.4445,2.413 v 14.287504 h -4.66725 V 96.325676 q 0,-0.889 -0.3175,-1.23825 -0.28575,-0.381 -0.889,-0.381 -0.381,0 -0.92075,0.22225 -0.53975,0.22225 -1.016,0.635 0,0.0635 0,0.127 0,0.0635 0,0.15875 v 14.287504 h -4.60375 V 96.325676 q 0,-0.889 -0.3175,-1.23825 -0.3175,-0.381 -0.92075,-0.381 -0.41275,0 -0.9525,0.22225 -0.508,0.22225 -0.98425,0.635 v 14.573254 z" />
    </g>
    <g
       style="font-size:22.9306px;line-height:1.25;font-family:Merriweather;-inkscape-font-specification:Merriweather;stroke-width:0.264583"
       id="text841"
       transform="rotate(-90,-59.500054,-0.72517425)"
       aria-label="da">
      <path
         id="path876"
         style="font-style:normal;font-variant:normal;font-weight:300;font-stretch:normal;font-size:22.9306px;font-family:Oswald;-inkscape-font-specification:'Oswald Light';fill:#723d46;fill-opacity:1;stroke-width:0.264583"
         d="m -106.94663,80.85804 q -1.69687,0 -2.45358,-1.284113 -0.73378,-1.284114 -0.73378,-4.265092 v -2.453574 q 0,-1.742726 0.25224,-3.003908 0.25224,-1.261183 0.91722,-1.949101 0.68792,-0.710849 1.94911,-0.710849 0.77964,0 1.3529,0.36689 0.5962,0.343959 0.98602,0.77964 v -6.260054 h 1.67393 v 18.573786 h -1.67393 V 79.71151 q -0.38982,0.435682 -0.96309,0.802571 -0.55033,0.343959 -1.30704,0.343959 z m 0.34396,-1.329975 q 0.55033,0 1.03187,-0.252236 0.50448,-0.252237 0.8943,-0.619126 v -9.218101 q -0.34396,-0.321029 -0.84844,-0.619126 -0.50447,-0.321029 -1.12359,-0.321029 -1.10067,0 -1.46756,0.986016 -0.34396,0.963085 -0.34396,2.820464 v 3.141492 q 0,1.329974 0.13758,2.247198 0.16052,0.917224 0.55034,1.375836 0.41275,0.458612 1.16946,0.458612 z" />
      <path
         id="path878"
         style="font-style:normal;font-variant:normal;font-weight:300;font-stretch:normal;font-size:22.9306px;font-family:Oswald;-inkscape-font-specification:'Oswald Light';fill:#723d46;fill-opacity:1;stroke-width:0.264583"
         d="m -98.138775,80.85804 q -0.802571,0 -1.398766,-0.38982 -0.596199,-0.412751 -0.940159,-1.077738 -0.32102,-0.687918 -0.32102,-1.490489 0,-1.008947 0.27516,-1.719795 0.2981,-0.710849 0.917227,-1.261183 0.642057,-0.573265 1.651003,-1.100669 1.031877,-0.550334 2.499435,-1.215322 V 71.66287 q 0,-1.215322 -0.160514,-1.90324 -0.137583,-0.710848 -0.504473,-1.008946 -0.343959,-0.298098 -0.986016,-0.298098 -0.527403,0 -0.940154,0.206375 -0.412751,0.206376 -0.664988,0.710849 -0.252236,0.481543 -0.252236,1.352905 v 0.458612 l -1.651004,-0.02293 q 0.0229,-2.017893 0.848433,-2.980978 0.848432,-0.986016 2.751672,-0.986016 1.788586,0 2.499435,1.077738 0.733779,1.054808 0.733779,3.302006 v 6.443499 q 0,0.343959 0.02293,0.894293 0.02293,0.527404 0.04586,1.008947 0.02293,0.481542 0.04586,0.733779 H -95.1578 q -0.04586,-0.435682 -0.137583,-0.963085 -0.09172,-0.550335 -0.114653,-0.871363 -0.275168,0.802571 -0.986016,1.421697 -0.687918,0.619126 -1.742726,0.619126 z m 0.527404,-1.421697 q 0.504473,0 0.917224,-0.252237 0.412751,-0.252236 0.733779,-0.596195 0.321029,-0.36689 0.504473,-0.733779 v -4.127508 q -0.986015,0.504473 -1.696864,0.917224 -0.687918,0.412751 -1.123599,0.802571 -0.435682,0.38982 -0.642057,0.894293 -0.206375,0.481543 -0.206375,1.14653 0,1.054808 0.458612,1.51342 0.458612,0.435681 1.054807,0.435681 z" />
    </g>
  </g>
</svg>
