<?xml version="1.0" encoding="UTF-8" standalone="no"?>
<svg
   xmlns:dc="http://purl.org/dc/elements/1.1/"
   xmlns:cc="http://creativecommons.org/ns#"
   xmlns:rdf="http://www.w3.org/1999/02/22-rdf-syntax-ns#"
   xmlns:svg="http://www.w3.org/2000/svg"
   xmlns="http://www.w3.org/2000/svg"
   xmlns:sodipodi="http://sodipodi.sourceforge.net/DTD/sodipodi-0.dtd"
   xmlns:inkscape="http://www.inkscape.org/namespaces/inkscape"
   sodipodi:docname="logo2.svg"
   inkscape:version="1.0 (4035a4fb49, 2020-05-01)"
   id="svg8"
   version="1.1"
   viewBox="0 0 320 70"
   height="70mm"
   width="320mm">
  <defs
     id="defs2" />
  <sodipodi:namedview
     inkscape:window-maximized="1"
     inkscape:window-y="-8"
     inkscape:window-x="-8"
     inkscape:window-height="702"
     inkscape:window-width="1366"
     inkscape:guide-bbox="true"
     showguides="true"
     showgrid="false"
     inkscape:document-rotation="0"
     inkscape:current-layer="layer1"
     inkscape:document-units="mm"
     inkscape:cy="132.28346"
     inkscape:cx="604.72441"
     inkscape:zoom="0.7"
     inkscape:pageshadow="2"
     inkscape:pageopacity="0.0"
     borderopacity="1.0"
     bordercolor="#666666"
     pagecolor="#ffffff"
     id="base" />
  <metadata
     id="metadata5">
    <rdf:RDF>
      <cc:Work
         rdf:about="">
        <dc:format>image/svg+xml</dc:format>
        <dc:type
           rdf:resource="http://purl.org/dc/dcmitype/StillImage" />
        <dc:title></dc:title>
      </cc:Work>
    </rdf:RDF>
  </metadata>
  <g
     id="layer1"
     inkscape:groupmode="layer"
     inkscape:label="Layer 1">
    <g
       transform="translate(-57.907414,-54.35761)"
       style="font-size:22.5778px;line-height:0;font-family:Merriweather;-inkscape-font-specification:Merriweather;stroke-width:0.264583"
       id="text835"
       aria-label="Empório
    jovem">
      <path
         id="path851"
         style="font-style:normal;font-variant:normal;font-weight:300;font-stretch:normal;font-size:22.5778px;line-height:1.05;font-family:Merriweather;-inkscape-font-specification:'Merriweather Light';fill:#472d30;fill-opacity:1;stroke-width:0.264583"
         d="M 64.302724,69.110559 62.406189,68.862204 V 67.891358 H 73.5822 l 0.31609,3.318937 h -1.083735 l -0.6096,-2.167469 -6.050851,-0.112889 v 6.57014 l 4.154315,-0.06773 0.293512,-1.873958 h 1.12889 v 4.989694 h -1.12889 L 70.308419,76.62897 66.154104,76.56124 v 6.953962 l 6.908807,-0.180622 1.151468,-2.822225 1.083734,0.338667 -0.699912,3.815648 H 62.361033 v -0.970845 l 1.941691,-0.203201 z" />
      <path
         id="path853"
         style="font-style:normal;font-variant:normal;font-weight:300;font-stretch:normal;font-size:22.5778px;line-height:1.05;font-family:Merriweather;-inkscape-font-specification:'Merriweather Light';fill:#472d30;fill-opacity:1;stroke-width:0.264583"
         d="m 76.86586,83.695819 1.444979,-0.180623 V 73.62612 l -1.738491,-0.383823 v -1.016001 l 2.867381,-0.361245 0.496712,0.361245 v 0.993423 l -0.02258,0.564445 q 0.835378,-0.722489 2.190047,-1.33209 1.354668,-0.609601 2.46098,-0.609601 1.219201,0 1.941691,0.406401 0.745067,0.4064 1.12889,1.264357 0.699912,-0.587023 2.032002,-1.12889 1.354668,-0.541868 2.483558,-0.541868 1.422401,0 2.190047,0.541868 0.790223,0.541867 1.106312,1.670757 0.316089,1.12889 0.316089,3.048003 v 6.412095 l 1.715913,0.180623 v 0.970845 h -5.057428 v -0.970845 l 1.535291,-0.180623 v -6.344362 q 0,-1.422401 -0.2032,-2.25778 -0.2032,-0.835378 -0.790223,-1.264357 -0.587023,-0.428978 -1.715913,-0.428978 -0.835379,0 -1.761069,0.383823 -0.903112,0.361245 -1.557868,0.835378 0.225778,1.038579 0.225778,2.709336 v 6.36694 l 1.715913,0.180623 v 0.970845 h -5.170316 v -0.970845 l 1.625601,-0.180623 v -6.389517 q 0,-1.44498 -0.180622,-2.25778 -0.158045,-0.812801 -0.699912,-1.219202 -0.541867,-0.4064 -1.603024,-0.4064 -0.880534,0 -1.919113,0.451556 -1.016001,0.428978 -1.783646,1.038579 v 8.782764 l 1.603024,0.180623 v 0.970845 H 76.86586 Z" />
      <path
         id="path855"
         style="font-style:normal;font-variant:normal;font-weight:300;font-stretch:normal;font-size:22.5778px;line-height:1.05;font-family:Merriweather;-inkscape-font-specification:'Merriweather Light';fill:#472d30;fill-opacity:1;stroke-width:0.264583"
         d="m 111.14743,77.938479 q 0,1.941691 -0.79022,3.544715 -0.79023,1.580446 -2.25778,2.506136 -1.44498,0.92569 -3.31894,0.92569 -0.63218,0 -1.33209,-0.112889 -0.69991,-0.09031 -1.15147,-0.248356 l 0.0452,1.919113 v 2.438403 l 2.50613,0.225778 v 0.993423 H 98.797414 V 89.137069 L 100.5359,88.911291 V 73.62612 l -1.761064,-0.383823 v -1.016001 l 2.889954,-0.361245 h 0.0452 l 0.4064,0.361245 v 1.377246 q 0.72249,-0.745068 1.76107,-1.264357 1.03858,-0.541867 2.32551,-0.541867 1.30951,0 2.4384,0.654756 1.12889,0.654756 1.80623,2.032002 0.69991,1.377246 0.69991,3.454403 z m -5.68961,-4.763915 q -0.97084,0 -1.80622,0.4064 -0.83538,0.4064 -1.30951,0.903112 v 8.602142 q 0.18062,0.293511 0.90311,0.541867 0.74507,0.225778 1.6256,0.225778 1.94169,0 3.11574,-1.422401 1.19662,-1.444979 1.19662,-4.244627 0,-2.506136 -1.06115,-3.747915 -1.03858,-1.264356 -2.66419,-1.264356 z" />
      <path
         id="path857"
         style="font-style:normal;font-variant:normal;font-weight:300;font-stretch:normal;font-size:22.5778px;line-height:1.05;font-family:Merriweather;-inkscape-font-specification:'Merriweather Light';fill:#472d30;fill-opacity:1;stroke-width:0.264583"
         d="m 113.18049,78.322302 q 0,-1.964269 0.8128,-3.454403 0.83538,-1.490135 2.16747,-2.280358 1.35466,-0.790223 2.82222,-0.790223 2.8448,0 4.19947,1.851379 1.37725,1.85138 1.37725,4.741339 0,1.964268 -0.83538,3.454403 -0.8128,1.490135 -2.16747,2.280358 -1.33209,0.790223 -2.79965,0.790223 -2.8448,0 -4.22204,-1.85138 -1.35467,-1.851379 -1.35467,-4.741338 z m 5.6896,5.418672 q 1.73849,0 2.68676,-1.33209 0.94827,-1.33209 0.94827,-3.883382 0,-2.438402 -0.88054,-3.99627 -0.88053,-1.557869 -2.73191,-1.557869 -1.73849,0 -2.70934,1.332091 -0.94826,1.33209 -0.94826,3.883381 0,2.460981 0.88053,4.018849 0.90311,1.53529 2.75449,1.53529 z m -1.51271,-14.562681 3.49956,-4.357516 1.53529,1.241779 q -0.45156,0.677334 -2.00942,2.032002 -1.5353,1.332091 -2.32552,1.693335 z" />
      <path
         id="path859"
         style="font-style:normal;font-variant:normal;font-weight:300;font-stretch:normal;font-size:22.5778px;line-height:1.05;font-family:Merriweather;-inkscape-font-specification:'Merriweather Light';fill:#472d30;fill-opacity:1;stroke-width:0.264583"
         d="m 126.72047,83.718396 1.80622,-0.135466 v -9.95681 l -1.73849,-0.383823 v -1.016001 l 2.86738,-0.361245 h 0.0452 l 0.42897,0.361245 v 0.361245 l -0.0451,1.715913 h 0.0451 q 0.0452,-0.04516 0.58703,-0.677334 0.56444,-0.654757 1.64818,-1.241779 1.10631,-0.587023 2.21262,-0.587023 0.36125,0 0.67734,0.09031 v 1.986846 q -0.0903,-0.06773 -0.4064,-0.135466 -0.29352,-0.06773 -0.63218,-0.06773 -1.28694,0 -2.19005,0.383823 -0.90311,0.383822 -1.67076,0.948267 v 8.556987 l 3.00285,0.180622 v 0.92569 h -6.63787 z" />
      <path
         id="path861"
         style="font-style:normal;font-variant:normal;font-weight:300;font-stretch:normal;font-size:22.5778px;line-height:1.05;font-family:Merriweather;-inkscape-font-specification:'Merriweather Light';fill:#472d30;fill-opacity:1;stroke-width:0.264583"
         d="m 139.41413,69.765316 q -1.2192,0 -1.2192,-1.286935 0,-0.654756 0.38382,-1.061157 0.38382,-0.428978 1.03858,-0.428978 0.67733,0 0.97085,0.383823 0.29351,0.361245 0.29351,0.903112 0,0.699912 -0.38382,1.106312 -0.36125,0.383823 -1.06116,0.383823 z m -0.72249,3.860804 -1.76107,-0.383823 v -1.016001 l 3.09316,-0.361245 h 0.0452 l 0.45155,0.361245 v 11.311478 l 1.96427,0.158045 v 0.970845 h -5.77992 v -0.970845 l 1.98685,-0.180623 z" />
      <path
         id="path863"
         style="font-style:normal;font-variant:normal;font-weight:300;font-stretch:normal;font-size:22.5778px;line-height:1.05;font-family:Merriweather;-inkscape-font-specification:'Merriweather Light';fill:#472d30;fill-opacity:1;stroke-width:0.264583"
         d="m 144.09267,78.322302 q 0,-1.964269 0.8128,-3.454403 0.83538,-1.490135 2.16747,-2.280358 1.35467,-0.790223 2.82223,-0.790223 2.8448,0 4.19947,1.851379 1.37724,1.85138 1.37724,4.741339 0,1.964268 -0.83537,3.454403 -0.81281,1.490135 -2.16747,2.280358 -1.33209,0.790223 -2.79965,0.790223 -2.8448,0 -4.22205,-1.85138 -1.35467,-1.851379 -1.35467,-4.741338 z m 5.68961,5.418672 q 1.73849,0 2.68676,-1.33209 0.94826,-1.33209 0.94826,-3.883382 0,-2.438402 -0.88053,-3.99627 -0.88053,-1.557869 -2.73191,-1.557869 -1.73849,0 -2.70934,1.332091 -0.94827,1.33209 -0.94827,3.883381 0,2.460981 0.88054,4.018849 0.90311,1.53529 2.75449,1.53529 z" />
      <path
         id="path865"
         style="font-style:normal;font-variant:normal;font-weight:600;font-stretch:normal;font-size:31.75px;line-height:0.65;font-family:Oswald;-inkscape-font-specification:'Oswald Semi-Bold';fill:#723d46;fill-opacity:1"
         d="m 84.060415,115.62968 q -0.66675,0 -1.3335,-0.0952 -0.635,-0.0953 -1.2065,-0.28575 v -3.429 q 0.1905,0.0317 0.4445,0.0635 0.254,0.0318 0.47625,0.0318 0.508,0 0.8255,-0.1905 0.3175,-0.15875 0.47625,-0.53975 0.1905,-0.381 0.1905,-0.9525 V 91.785426 h 4.79425 v 19.018254 q 0,2.159 -1.2065,3.4925 -1.17475,1.3335 -3.46075,1.3335 z m -0.127,-26.860504 v -3.58775 h 4.79425 v 3.58775 z" />
      <path
         id="path867"
         style="font-style:normal;font-variant:normal;font-weight:600;font-stretch:normal;font-size:31.75px;line-height:0.65;font-family:Oswald;-inkscape-font-specification:'Oswald Semi-Bold';fill:#723d46;fill-opacity:1"
         d="m 97.826521,110.45443 q -1.9685,0 -3.3655,-0.6985 -1.397,-0.73025 -2.12725,-2.0955 -0.6985,-1.36525 -0.6985,-3.39725 v -6.604004 q 0,-2.032 0.6985,-3.39725 0.73025,-1.36525 2.12725,-2.06375 1.397,-0.73025 3.3655,-0.73025 1.9685,0 3.365499,0.73025 1.397,0.6985 2.12725,2.06375 0.73025,1.36525 0.73025,3.39725 v 6.604004 q 0,2.032 -0.73025,3.39725 -0.73025,1.36525 -2.12725,2.0955 -1.396999,0.6985 -3.365499,0.6985 z m 0.03175,-3.2385 q 0.60325,0 0.92075,-0.3175 0.3175,-0.34925 0.41275,-0.92075 0.09525,-0.60325 0.09525,-1.36525 v -7.270754 q 0,-0.79375 -0.09525,-1.36525 -0.09525,-0.5715 -0.41275,-0.92075 -0.3175,-0.34925 -0.92075,-0.34925 -0.60325,0 -0.92075,0.34925 -0.3175,0.34925 -0.4445,0.92075 -0.09525,0.5715 -0.09525,1.36525 v 7.270754 q 0,0.762 0.09525,1.36525 0.127,0.5715 0.4445,0.92075 0.3175,0.3175 0.92075,0.3175 z" />
      <path
         id="path869"
         style="font-style:normal;font-variant:normal;font-weight:600;font-stretch:normal;font-size:31.75px;line-height:0.65;font-family:Oswald;-inkscape-font-specification:'Oswald Semi-Bold';fill:#723d46;fill-opacity:1"
         d="m 109.34234,110.13693 -3.683,-18.351504 h 4.6355 l 1.68275,12.350754 1.5875,-12.350754 h 4.60375 l -3.71475,18.351504 z" />
      <path
         id="path871"
         style="font-style:normal;font-variant:normal;font-weight:600;font-stretch:normal;font-size:31.75px;line-height:0.65;font-family:Oswald;-inkscape-font-specification:'Oswald Semi-Bold';fill:#723d46;fill-opacity:1"
         d="m 125.82407,110.45443 q -2.032,0 -3.39725,-0.73025 -1.36525,-0.762 -2.06375,-2.19075 -0.6985,-1.4605 -0.6985,-3.4925 v -6.159504 q 0,-2.0955 0.6985,-3.4925 0.6985,-1.42875 2.0955,-2.159 1.397,-0.762 3.3655,-0.762 2.0955,0 3.39725,0.762 1.30175,0.762 1.905,2.2225 0.635,1.4605 0.635,3.556 v 3.206754 h -7.366 v 3.556 q 0,0.79375 0.15875,1.30175 0.1905,0.508 0.508,0.73025 0.3175,0.1905 0.79375,0.1905 0.4445,0 0.762,-0.1905 0.34925,-0.22225 0.508,-0.66675 0.15875,-0.4445 0.15875,-1.17475 v -1.74625 h 4.445 v 1.524 q 0,2.794 -1.524,4.2545 -1.524,1.4605 -4.3815,1.4605 z m -1.42875,-11.525254 h 2.88925 v -1.80975 q 0,-0.79375 -0.15875,-1.27 -0.15875,-0.508 -0.508,-0.6985 -0.3175,-0.22225 -0.8255,-0.22225 -0.47625,0 -0.79375,0.22225 -0.28575,0.22225 -0.4445,0.79375 -0.15875,0.53975 -0.15875,1.55575 z" />
      <path
         id="path873"
         style="font-style:normal;font-variant:normal;font-weight:600;font-stretch:normal;font-size:31.75px;line-height:0.65;font-family:Oswald;-inkscape-font-specification:'Oswald Semi-Bold';fill:#723d46;fill-opacity:1"
         d="M 134.68033,110.13693 V 91.785426 h 4.66725 v 1.524 q 0.98425,-1.016 2.06375,-1.42875 1.11125,-0.4445 2.25425,-0.4445 1.11125,0 1.905,0.5715 0.8255,0.53975 1.2065,1.651 1.0795,-1.2065 2.25425,-1.7145 1.17475,-0.508 2.413,-0.508 1.016,0 1.80975,0.508 0.79375,0.508 1.23825,1.49225 0.4445,0.98425 0.4445,2.413 v 14.287504 h -4.66725 V 96.325676 q 0,-0.889 -0.3175,-1.23825 -0.28575,-0.381 -0.889,-0.381 -0.381,0 -0.92075,0.22225 -0.53975,0.22225 -1.016,0.635 0,0.0635 0,0.127 0,0.0635 0,0.15875 v 14.287504 h -4.60375 V 96.325676 q 0,-0.889 -0.3175,-1.23825 -0.3175,-0.381 -0.92075,-0.381 -0.41275,0 -0.9525,0.22225 -0.508,0.22225 -0.98425,0.635 v 14.573254 z" />
    </g>
    <g
       style="font-size:22.9306px;line-height:1.25;font-family:Merriweather;-inkscape-font-specification:Merriweather;stroke-width:0.264583"
       id="text841"
       transform="rotate(-90,-56.13251,1.774903)"
       aria-label="da">
      <path
         id="path876"
         style="font-style:normal;font-variant:normal;font-weight:300;font-stretch:normal;font-size:22.9306px;font-family:Oswald;-inkscape-font-specification:'Oswald Light';fill:#723d46;fill-opacity:1;stroke-width:0.264583"
         d="m -106.94663,80.85804 q -1.69687,0 -2.45358,-1.284113 -0.73378,-1.284114 -0.73378,-4.265092 v -2.453574 q 0,-1.742726 0.25224,-3.003908 0.25224,-1.261183 0.91722,-1.949101 0.68792,-0.710849 1.94911,-0.710849 0.77964,0 1.3529,0.36689 0.5962,0.343959 0.98602,0.77964 v -6.260054 h 1.67393 v 18.573786 h -1.67393 V 79.71151 q -0.38982,0.435682 -0.96309,0.802571 -0.55033,0.343959 -1.30704,0.343959 z m 0.34396,-1.329975 q 0.55033,0 1.03187,-0.252236 0.50448,-0.252237 0.8943,-0.619126 v -9.218101 q -0.34396,-0.321029 -0.84844,-0.619126 -0.50447,-0.321029 -1.12359,-0.321029 -1.10067,0 -1.46756,0.986016 -0.34396,0.963085 -0.34396,2.820464 v 3.141492 q 0,1.329974 0.13758,2.247198 0.16052,0.917224 0.55034,1.375836 0.41275,0.458612 1.16946,0.458612 z" />
      <path
         id="path878"
         style="font-style:normal;font-variant:normal;font-weight:300;font-stretch:normal;font-size:22.9306px;font-family:Oswald;-inkscape-font-specification:'Oswald Light';fill:#723d46;fill-opacity:1;stroke-width:0.264583"
         d="m -98.138775,80.85804 q -0.802571,0 -1.398766,-0.38982 -0.596199,-0.412751 -0.940159,-1.077738 -0.32102,-0.687918 -0.32102,-1.490489 0,-1.008947 0.27516,-1.719795 0.2981,-0.710849 0.917227,-1.261183 0.642057,-0.573265 1.651003,-1.100669 1.031877,-0.550334 2.499435,-1.215322 V 71.66287 q 0,-1.215322 -0.160514,-1.90324 -0.137583,-0.710848 -0.504473,-1.008946 -0.343959,-0.298098 -0.986016,-0.298098 -0.527403,0 -0.940154,0.206375 -0.412751,0.206376 -0.664988,0.710849 -0.252236,0.481543 -0.252236,1.352905 v 0.458612 l -1.651004,-0.02293 q 0.0229,-2.017893 0.848433,-2.980978 0.848432,-0.986016 2.751672,-0.986016 1.788586,0 2.499435,1.077738 0.733779,1.054808 0.733779,3.302006 v 6.443499 q 0,0.343959 0.02293,0.894293 0.02293,0.527404 0.04586,1.008947 0.02293,0.481542 0.04586,0.733779 H -95.1578 q -0.04586,-0.435682 -0.137583,-0.963085 -0.09172,-0.550335 -0.114653,-0.871363 -0.275168,0.802571 -0.986016,1.421697 -0.687918,0.619126 -1.742726,0.619126 z m 0.527404,-1.421697 q 0.504473,0 0.917224,-0.252237 0.412751,-0.252236 0.733779,-0.596195 0.321029,-0.36689 0.504473,-0.733779 v -4.127508 q -0.986015,0.504473 -1.696864,0.917224 -0.687918,0.412751 -1.123599,0.802571 -0.435682,0.38982 -0.642057,0.894293 -0.206375,0.481543 -0.206375,1.14653 0,1.054808 0.458612,1.51342 0.458612,0.435681 1.054807,0.435681 z" />
    </g>
    <path
       id="path881"
       d="M 109.11162,6.6694306 V 63.330569"
       style="fill:none;stroke:#472d30;stroke-width:0.465;stroke-linecap:butt;stroke-linejoin:miter;stroke-miterlimit:4;stroke-dasharray:none;stroke-opacity:1" />
    <g
       transform="translate(-110.8512,4.2640044)"
       style="font-size:14.1111px;line-height:1.25;font-family:Merriweather;-inkscape-font-specification:Merriweather;stroke-width:0.264583"
       id="text885"
       aria-label="comidas naturais, saudáveis
e saborosas">
      <path
         id="path893"
         style="font-size:14.1111px;fill:#723d46;fill-opacity:1;stroke-width:0.264583"
         d="m 231.61615,22.058703 q 0,-1.171222 0.45155,-2.116665 0.46567,-0.945444 1.35467,-1.495777 0.90311,-0.564444 2.159,-0.564444 0.60677,0 1.04422,0.112889 0.43744,0.112889 1.04422,0.310444 l -0.0564,2.17311 h -0.91723 l -0.31044,-1.439333 q -0.0847,-0.395111 -1.07244,-0.395111 -0.98778,0 -1.56634,0.804333 -0.56444,0.790222 -0.56444,2.257776 0,1.66511 0.635,2.539998 0.64911,0.860777 1.67922,0.860777 0.59267,0 1.11478,-0.183444 0.53622,-0.183444 0.91722,-0.437444 l 0.26811,0.564444 q -0.381,0.395111 -1.12889,0.719666 -0.73377,0.310444 -1.49577,0.310444 -1.15711,0 -1.96145,-0.52211 -0.79022,-0.522111 -1.19944,-1.425222 -0.39511,-0.917221 -0.39511,-2.074331 z" />
      <path
         id="path895"
         style="font-size:14.1111px;fill:#723d46;fill-opacity:1;stroke-width:0.264583"
         d="m 239.03396,21.988147 q 0,-1.269999 0.52211,-2.201331 0.52211,-0.931333 1.36877,-1.41111 0.86078,-0.493889 1.83445,-0.493889 1.778,0 2.667,1.128888 0.90311,1.128888 0.90311,2.963331 0,1.28411 -0.52212,2.215443 -0.52211,0.931332 -1.38288,1.41111 -0.84667,0.479777 -1.82033,0.479777 -1.778,0 -2.68111,-1.128888 -0.889,-1.128888 -0.889,-2.963331 z m 3.65477,3.287887 q 0.97367,0 1.49578,-0.804333 0.52211,-0.804333 0.52211,-2.384776 0,-1.566332 -0.47978,-2.483554 -0.47978,-0.917221 -1.53811,-0.917221 -0.97366,0 -1.50989,0.804333 -0.52211,0.804332 -0.52211,2.384775 0,1.566333 0.49389,2.483554 0.49389,0.917222 1.53811,0.917222 z" />
      <path
         id="path897"
         style="font-size:14.1111px;fill:#723d46;fill-opacity:1;stroke-width:0.264583"
         d="m 247.59124,25.2337 0.86077,-0.127 v -5.926662 l -1.016,-0.254 v -0.761999 l 2.01789,-0.254 0.254,0.183445 0.0847,0.564444 -0.0141,0.451555 q 0.49389,-0.451555 1.34055,-0.818444 0.86078,-0.381 1.53811,-0.381 0.762,0 1.22767,0.254 0.46566,0.254 0.70555,0.790222 0.45156,-0.381 1.25589,-0.705555 0.81844,-0.338667 1.524,-0.338667 0.87489,0 1.36878,0.338667 0.49388,0.324555 0.69144,1.03011 0.21167,0.691444 0.21167,1.862665 V 25.1067 l 1.016,0.127 v 0.691444 h -3.35845 V 25.2337 l 0.87489,-0.127 v -3.922885 q 0,-0.818444 -0.127,-1.298222 -0.11289,-0.493888 -0.45155,-0.733777 -0.32456,-0.239889 -0.94545,-0.239889 -0.46566,0 -0.98777,0.211667 -0.52211,0.197555 -0.889,0.479777 0.127,0.550333 0.127,1.566332 V 25.1067 l 1.00188,0.127 v 0.691444 h -3.41488 V 25.2337 l 0.93133,-0.127 v -3.951108 q 0,-0.846666 -0.11289,-1.312332 -0.0988,-0.465666 -0.39511,-0.691444 -0.29633,-0.239889 -0.90311,-0.239889 -0.508,0 -1.08655,0.254 -0.56445,0.254 -0.98778,0.592666 V 25.1067 l 0.94544,0.127 v 0.691444 h -3.28788 z" />
      <path
         id="path899"
         style="font-size:14.1111px;fill:#723d46;fill-opacity:1;stroke-width:0.264583"
         d="m 263.29888,16.682374 q -0.45156,0 -0.67734,-0.254 -0.22578,-0.254 -0.22578,-0.649111 0,-0.451555 0.26812,-0.747888 0.28222,-0.296333 0.762,-0.296333 0.47977,0 0.70555,0.254 0.22578,0.253999 0.22578,0.64911 0,0.479778 -0.28222,0.762 -0.26812,0.282222 -0.762,0.282222 z m -0.56445,2.497664 -1.07244,-0.254 V 18.17815 l 2.18722,-0.268111 h 0.0282 l 0.32456,0.254 v 6.956772 l 1.12888,0.112889 v 0.691444 h -3.73944 V 25.2337 l 1.143,-0.127 z" />
      <path
         id="path901"
         style="font-size:14.1111px;fill:#723d46;fill-opacity:1;stroke-width:0.264583"
         d="m 269.39465,26.080366 q -0.84666,0 -1.55222,-0.423333 -0.70555,-0.423333 -1.12889,-1.298221 -0.40922,-0.874888 -0.40922,-2.158998 0,-1.199444 0.49389,-2.187221 0.49389,-0.987777 1.41111,-1.552221 0.93133,-0.578555 2.18722,-0.578555 0.71967,0 1.31233,0.155222 v -2.638776 l -1.43933,-0.169333 v -0.606777 l 2.54,-0.254 h 0.0423 l 0.31045,0.225778 v 10.611547 h 0.81844 v 0.649111 q -0.45156,0.09878 -0.79022,0.155222 -0.32456,0.05644 -0.69145,0.05644 -0.36688,0 -0.52211,-0.127 -0.15522,-0.127 -0.15522,-0.536222 v -0.451555 q -0.39511,0.479778 -1.04422,0.804333 -0.635,0.324555 -1.38289,0.324555 z m 0.56445,-1.001888 q 0.55033,0 1.03011,-0.239889 0.47977,-0.253999 0.71966,-0.578555 v -5.164662 q -0.11289,-0.169334 -0.53622,-0.296333 -0.40922,-0.141111 -0.87489,-0.141111 -1.10066,0 -1.76389,0.846666 -0.64911,0.832555 -0.64911,2.582331 0,1.523999 0.57856,2.257776 0.57855,0.733777 1.49578,0.733777 z" />
      <path
         id="path903"
         style="font-size:14.1111px;fill:#723d46;fill-opacity:1;stroke-width:0.264583"
         d="m 275.11097,23.808479 q 0,-1.326443 1.32644,-1.947332 1.32644,-0.634999 3.35844,-0.677332 v -0.395111 q 0,-0.663222 -0.14111,-1.044222 -0.14111,-0.380999 -0.49389,-0.550333 -0.33866,-0.183444 -0.97366,-0.183444 -0.71967,0 -1.29822,0.211667 -0.56445,0.197555 -1.12889,0.493888 l -0.35278,-0.733777 q 0.18344,-0.155222 0.67733,-0.409222 0.49389,-0.254 1.143,-0.451555 0.64911,-0.197556 1.29822,-0.197556 1.00189,0 1.58045,0.282222 0.59266,0.268111 0.84666,0.874889 0.254,0.606777 0.254,1.622776 V 25.2337 h 0.83256 v 0.620889 q -0.28222,0.07055 -0.71967,0.141111 -0.42333,0.07056 -0.74789,0.07056 -0.39511,0 -0.53622,-0.127 -0.14111,-0.112889 -0.14111,-0.52211 v -0.465667 q -0.42333,0.423333 -1.04422,0.776111 -0.60678,0.352777 -1.38289,0.352777 -1.016,0 -1.69333,-0.578555 -0.66322,-0.592666 -0.66322,-1.693332 z m 2.96333,1.312332 q 0.36689,0 0.84666,-0.225777 0.47978,-0.225778 0.87489,-0.536222 v -2.427109 q -1.53811,0 -2.32833,0.479777 -0.77611,0.465667 -0.77611,1.227666 0,0.761999 0.36689,1.128888 0.381,0.352777 1.016,0.352777 z" />
      <path
         id="path905"
         style="font-size:14.1111px;fill:#723d46;fill-opacity:1;stroke-width:0.264583"
         d="m 284.33323,24.796256 q 0.14112,0.211667 0.59267,0.381 0.46567,0.169333 0.97367,0.169333 0.80433,0 1.18533,-0.310444 0.381,-0.310444 0.381,-0.860777 0,-0.381 -0.23989,-0.663222 -0.23989,-0.282222 -0.67733,-0.493888 -0.42334,-0.225778 -1.22767,-0.536222 -1.08655,-0.409222 -1.59455,-0.973666 -0.49389,-0.578555 -0.49389,-1.509888 0,-0.620888 0.36689,-1.086555 0.381,-0.465666 1.03011,-0.719666 0.66322,-0.268111 1.46755,-0.268111 0.64911,0 1.12889,0.09878 0.49389,0.09878 0.79022,0.197555 0.29633,0.09878 0.39511,0.127 v 1.749777 h -0.86077 l -0.28223,-1.044222 q -0.0847,-0.169333 -0.45155,-0.282222 -0.36689,-0.127 -0.81845,-0.127 -0.635,0 -1.03011,0.282222 -0.381,0.282223 -0.381,0.762 0,0.423333 0.19756,0.705555 0.21167,0.268111 0.52211,0.437444 0.31044,0.169333 0.84667,0.395111 l 0.28222,0.112889 q 0.79022,0.310444 1.28411,0.592666 0.49389,0.282222 0.81844,0.747888 0.33867,0.451555 0.33867,1.114777 0,1.044221 -0.81845,1.66511 -0.80433,0.620888 -2.21544,0.620888 -0.69144,0 -1.45344,-0.183444 -0.74789,-0.197555 -1.22767,-0.395111 V 23.69559 h 0.91722 z" />
      <path
         id="path907"
         style="font-size:14.1111px;fill:#723d46;fill-opacity:1;stroke-width:0.264583"
         d="m 294.34065,19.180038 -1.016,-0.254 v -0.761999 l 2.01789,-0.254 h 0.0423 l 0.29634,0.254 v 0.592666 l -0.0141,0.338667 q 0.508,-0.451556 1.34056,-0.818444 0.83255,-0.366889 1.59455,-0.366889 0.889,0 1.36878,0.338667 0.49389,0.338666 0.69144,1.044221 0.19756,0.691444 0.19756,1.876776 v 3.951108 l 0.98778,0.09878 v 0.705555 h -3.34433 V 25.2337 l 0.87488,-0.112889 v -3.965219 q 0,-0.832555 -0.11288,-1.298221 -0.11289,-0.479777 -0.42334,-0.705555 -0.31044,-0.239889 -0.90311,-0.239889 -0.508,0 -1.08655,0.254 -0.57856,0.254 -1.03011,0.592666 V 25.1067 l 0.95955,0.127 v 0.691444 h -3.33022 V 25.2337 l 0.889,-0.127 z" />
      <path
         id="path909"
         style="font-size:14.1111px;fill:#723d46;fill-opacity:1;stroke-width:0.264583"
         d="m 302.86464,23.808479 q 0,-1.326443 1.32644,-1.947332 1.32644,-0.634999 3.35844,-0.677332 v -0.395111 q 0,-0.663222 -0.14111,-1.044222 -0.14111,-0.380999 -0.49389,-0.550333 -0.33866,-0.183444 -0.97366,-0.183444 -0.71967,0 -1.29822,0.211667 -0.56445,0.197555 -1.12889,0.493888 l -0.35278,-0.733777 q 0.18344,-0.155222 0.67733,-0.409222 0.49389,-0.254 1.143,-0.451555 0.64911,-0.197556 1.29822,-0.197556 1.00189,0 1.58045,0.282222 0.59266,0.268111 0.84666,0.874889 0.254,0.606777 0.254,1.622776 V 25.2337 h 0.83256 v 0.620889 q -0.28223,0.07055 -0.71967,0.141111 -0.42333,0.07056 -0.74789,0.07056 -0.39511,0 -0.53622,-0.127 -0.14111,-0.112889 -0.14111,-0.52211 v -0.465667 q -0.42333,0.423333 -1.04422,0.776111 -0.60678,0.352777 -1.38289,0.352777 -1.016,0 -1.69333,-0.578555 -0.66322,-0.592666 -0.66322,-1.693332 z m 2.96333,1.312332 q 0.36689,0 0.84666,-0.225777 0.47978,-0.225778 0.87489,-0.536222 v -2.427109 q -1.53811,0 -2.32833,0.479777 -0.77611,0.465667 -0.77611,1.227666 0,0.761999 0.36689,1.128888 0.381,0.352777 1.016,0.352777 z" />
      <path
         id="path911"
         style="font-size:14.1111px;fill:#723d46;fill-opacity:1;stroke-width:0.264583"
         d="m 313.18757,26.066255 q -0.80433,0 -1.19944,-0.366888 -0.39511,-0.366889 -0.39511,-1.255888 v -5.418663 h -1.016 v -0.634999 q 0.0705,-0.01411 0.39511,-0.09878 0.32455,-0.08467 0.43744,-0.155222 0.22578,-0.127 0.35278,-0.508 0.11289,-0.268111 0.26811,-0.860777 0.15522,-0.592666 0.18344,-0.705555 h 0.83256 l 0.0282,2.031999 h 2.35655 v 0.931332 h -2.35655 v 4.332108 q 0,0.804333 0.0423,1.128888 0.0564,0.324555 0.21167,0.423333 0.16933,0.09878 0.56444,0.09878 0.381,0 0.83256,-0.09878 0.46567,-0.09878 0.71967,-0.211667 l 0.21166,0.635 q -0.33866,0.254 -1.10066,0.493888 -0.74789,0.239889 -1.36878,0.239889 z" />
      <path
         id="path913"
         style="font-size:14.1111px;fill:#723d46;fill-opacity:1;stroke-width:0.264583"
         d="m 322.92776,26.052144 q -0.39511,0 -0.59267,-0.155222 -0.18344,-0.155222 -0.18344,-0.508 v -0.479777 q -0.46567,0.465666 -1.17122,0.818444 -0.69145,0.352777 -1.397,0.352777 -1.31234,0 -1.86267,-0.705555 -0.55033,-0.705555 -0.55033,-2.328331 v -4.092219 l -0.79022,-0.225778 v -0.620888 l 1.97555,-0.183445 h 0.0141 l 0.26811,0.169334 v 4.840107 q 0,0.818444 0.11289,1.28411 0.127,0.451555 0.42334,0.677333 0.31044,0.211666 0.88899,0.211666 0.56445,0 1.05834,-0.239888 0.49389,-0.239889 0.86077,-0.564444 v -5.348107 l -1.016,-0.225778 v -0.620888 l 2.14489,-0.183445 h 0.0141 l 0.32456,0.169334 v 7.111994 h 0.84666 l -0.0141,0.635 q -0.39511,0.09878 -0.69144,0.155222 -0.28222,0.05644 -0.66322,0.05644 z" />
      <path
         id="path915"
         style="font-size:14.1111px;fill:#723d46;fill-opacity:1;stroke-width:0.264583"
         d="m 325.46511,25.2337 1.05833,-0.08467 v -5.968996 l -1.016,-0.254 v -0.761999 l 1.94733,-0.254 h 0.0282 l 0.31044,0.254 v 0.254 l -0.0423,1.100666 h 0.0423 q 0.14111,-0.239889 0.508,-0.620889 0.36689,-0.380999 0.94544,-0.691444 0.57856,-0.324555 1.25589,-0.324555 0.28222,0 0.46567,0.07056 v 1.580443 q -0.0988,-0.07056 -0.32456,-0.127 -0.21166,-0.07056 -0.47977,-0.07056 -1.17123,0 -2.17311,0.719667 v 5.079996 l 1.79211,0.112888 v 0.677333 h -4.318 z" />
      <path
         id="path917"
         style="font-size:14.1111px;fill:#723d46;fill-opacity:1;stroke-width:0.264583"
         d="m 331.91366,23.808479 q 0,-1.326443 1.32644,-1.947332 1.32644,-0.634999 3.35844,-0.677332 v -0.395111 q 0,-0.663222 -0.14111,-1.044222 -0.14111,-0.380999 -0.49389,-0.550333 -0.33867,-0.183444 -0.97366,-0.183444 -0.71967,0 -1.29823,0.211667 -0.56444,0.197555 -1.12888,0.493888 l -0.35278,-0.733777 q 0.18344,-0.155222 0.67733,-0.409222 0.49389,-0.254 1.143,-0.451555 0.64911,-0.197556 1.29822,-0.197556 1.00189,0 1.58044,0.282222 0.59267,0.268111 0.84667,0.874889 0.254,0.606777 0.254,1.622776 V 25.2337 h 0.83256 v 0.620889 q -0.28223,0.07055 -0.71967,0.141111 -0.42333,0.07056 -0.74789,0.07056 -0.39511,0 -0.53622,-0.127 -0.14111,-0.112889 -0.14111,-0.52211 v -0.465667 q -0.42333,0.423333 -1.04422,0.776111 -0.60678,0.352777 -1.38289,0.352777 -1.016,0 -1.69333,-0.578555 -0.66322,-0.592666 -0.66322,-1.693332 z m 2.96333,1.312332 q 0.36689,0 0.84666,-0.225777 0.47978,-0.225778 0.87489,-0.536222 v -2.427109 q -1.53811,0 -2.32833,0.479777 -0.77611,0.465667 -0.77611,1.227666 0,0.761999 0.36689,1.128888 0.381,0.352777 1.016,0.352777 z" />
      <path
         id="path919"
         style="font-size:14.1111px;fill:#723d46;fill-opacity:1;stroke-width:0.264583"
         d="m 341.4887,16.682374 q -0.45155,0 -0.67733,-0.254 -0.22578,-0.254 -0.22578,-0.649111 0,-0.451555 0.26811,-0.747888 0.28222,-0.296333 0.762,-0.296333 0.47978,0 0.70556,0.254 0.22577,0.253999 0.22577,0.64911 0,0.479778 -0.28222,0.762 -0.26811,0.282222 -0.762,0.282222 z m -0.56444,2.497664 -1.07245,-0.254 V 18.17815 l 2.18722,-0.268111 h 0.0282 l 0.32455,0.254 v 6.956772 l 1.12889,0.112889 v 0.691444 h -3.73944 V 25.2337 l 1.143,-0.127 z" />
      <path
         id="path921"
         style="font-size:14.1111px;fill:#723d46;fill-opacity:1;stroke-width:0.264583"
         d="m 345.84881,24.796256 q 0.14111,0.211667 0.59267,0.381 0.46567,0.169333 0.97367,0.169333 0.80433,0 1.18533,-0.310444 0.381,-0.310444 0.381,-0.860777 0,-0.381 -0.23989,-0.663222 -0.23989,-0.282222 -0.67733,-0.493888 -0.42334,-0.225778 -1.22767,-0.536222 -1.08655,-0.409222 -1.59455,-0.973666 -0.49389,-0.578555 -0.49389,-1.509888 0,-0.620888 0.36689,-1.086555 0.381,-0.465666 1.03011,-0.719666 0.66322,-0.268111 1.46755,-0.268111 0.64911,0 1.12889,0.09878 0.49389,0.09878 0.79022,0.197555 0.29633,0.09878 0.39511,0.127 v 1.749777 h -0.86078 l -0.28222,-1.044222 q -0.0847,-0.169333 -0.45155,-0.282222 -0.36689,-0.127 -0.81845,-0.127 -0.635,0 -1.03011,0.282222 -0.381,0.282223 -0.381,0.762 0,0.423333 0.19756,0.705555 0.21167,0.268111 0.52211,0.437444 0.31044,0.169333 0.84667,0.395111 l 0.28222,0.112889 q 0.79022,0.310444 1.28411,0.592666 0.49389,0.282222 0.81844,0.747888 0.33867,0.451555 0.33867,1.114777 0,1.044221 -0.81845,1.66511 -0.80433,0.620888 -2.21544,0.620888 -0.69144,0 -1.45344,-0.183444 -0.74789,-0.197555 -1.22767,-0.395111 V 23.69559 h 0.91722 z" />
      <path
         id="path923"
         style="font-size:14.1111px;fill:#723d46;fill-opacity:1;stroke-width:0.264583"
         d="m 353.46682,23.808479 q 0.47978,0 0.79022,0.465666 0.31045,0.451556 0.31045,1.241777 0,0.804333 -0.254,1.552221 -0.254,0.747889 -0.635,1.269999 -0.381,0.536222 -0.74789,0.747889 h -0.0141 l -0.47978,-0.338667 v -0.155222 q 0.28222,-0.225777 0.56444,-0.987777 0.29634,-0.747888 0.29634,-1.425221 0,-0.211667 -0.0847,-0.338666 -0.0706,-0.141111 -0.23989,-0.324556 -0.19755,-0.211666 -0.29633,-0.395111 -0.0988,-0.183444 -0.0988,-0.493888 0,-0.366889 0.22578,-0.592666 0.23989,-0.225778 0.59266,-0.225778 z" />
      <path
         id="path925"
         style="font-size:14.1111px;fill:#723d46;fill-opacity:1;stroke-width:0.264583"
         d="m 361.06234,24.796256 q 0.14111,0.211667 0.59266,0.381 0.46567,0.169333 0.97367,0.169333 0.80433,0 1.18533,-0.310444 0.381,-0.310444 0.381,-0.860777 0,-0.381 -0.23989,-0.663222 -0.23989,-0.282222 -0.67733,-0.493888 -0.42333,-0.225778 -1.22767,-0.536222 -1.08655,-0.409222 -1.59455,-0.973666 -0.49389,-0.578555 -0.49389,-1.509888 0,-0.620888 0.36689,-1.086555 0.381,-0.465666 1.03011,-0.719666 0.66322,-0.268111 1.46755,-0.268111 0.64912,0 1.12889,0.09878 0.49389,0.09878 0.79022,0.197555 0.29634,0.09878 0.39512,0.127 v 1.749777 h -0.86078 l -0.28222,-1.044222 q -0.0847,-0.169333 -0.45156,-0.282222 -0.36689,-0.127 -0.81844,-0.127 -0.635,0 -1.03011,0.282222 -0.381,0.282223 -0.381,0.762 0,0.423333 0.19755,0.705555 0.21167,0.268111 0.52211,0.437444 0.31045,0.169333 0.84667,0.395111 l 0.28222,0.112889 q 0.79022,0.310444 1.28411,0.592666 0.49389,0.282222 0.81845,0.747888 0.33866,0.451555 0.33866,1.114777 0,1.044221 -0.81844,1.66511 -0.80433,0.620888 -2.21544,0.620888 -0.69145,0 -1.45345,-0.183444 -0.74789,-0.197555 -1.22766,-0.395111 V 23.69559 h 0.91722 z" />
      <path
         id="path927"
         style="font-size:14.1111px;fill:#723d46;fill-opacity:1;stroke-width:0.264583"
         d="m 366.88823,23.808479 q 0,-1.326443 1.32645,-1.947332 1.32644,-0.634999 3.35844,-0.677332 v -0.395111 q 0,-0.663222 -0.14111,-1.044222 -0.14111,-0.380999 -0.49389,-0.550333 -0.33867,-0.183444 -0.97367,-0.183444 -0.71966,0 -1.29822,0.211667 -0.56444,0.197555 -1.12889,0.493888 l -0.35277,-0.733777 q 0.18344,-0.155222 0.67733,-0.409222 0.49389,-0.254 1.143,-0.451555 0.64911,-0.197556 1.29822,-0.197556 1.00189,0 1.58044,0.282222 0.59267,0.268111 0.84667,0.874889 0.254,0.606777 0.254,1.622776 V 25.2337 h 0.83255 v 0.620889 q -0.28222,0.07055 -0.71966,0.141111 -0.42333,0.07056 -0.74789,0.07056 -0.39511,0 -0.53622,-0.127 -0.14111,-0.112889 -0.14111,-0.52211 v -0.465667 q -0.42334,0.423333 -1.04422,0.776111 -0.60678,0.352777 -1.38289,0.352777 -1.016,0 -1.69333,-0.578555 -0.66323,-0.592666 -0.66323,-1.693332 z m 2.96334,1.312332 q 0.36688,0 0.84666,-0.225777 0.47978,-0.225778 0.87489,-0.536222 v -2.427109 q -1.53811,0 -2.32833,0.479777 -0.77611,0.465667 -0.77611,1.227666 0,0.761999 0.36689,1.128888 0.381,0.352777 1.016,0.352777 z" />
      <path
         id="path929"
         style="font-size:14.1111px;fill:#723d46;fill-opacity:1;stroke-width:0.264583"
         d="m 381.21873,26.052144 q -0.39511,0 -0.59267,-0.155222 -0.18344,-0.155222 -0.18344,-0.508 v -0.479777 q -0.46567,0.465666 -1.17122,0.818444 -0.69145,0.352777 -1.397,0.352777 -1.31234,0 -1.86267,-0.705555 -0.55033,-0.705555 -0.55033,-2.328331 v -4.092219 l -0.79022,-0.225778 v -0.620888 l 1.97555,-0.183445 h 0.0141 l 0.26811,0.169334 v 4.840107 q 0,0.818444 0.11289,1.28411 0.127,0.451555 0.42333,0.677333 0.31045,0.211666 0.889,0.211666 0.56445,0 1.05834,-0.239888 0.49389,-0.239889 0.86077,-0.564444 v -5.348107 l -1.016,-0.225778 v -0.620888 l 2.14489,-0.183445 h 0.0141 l 0.32456,0.169334 v 7.111994 h 0.84666 l -0.0141,0.635 q -0.39511,0.09878 -0.69144,0.155222 -0.28222,0.05644 -0.66322,0.05644 z" />
      <path
         id="path931"
         style="font-size:14.1111px;fill:#723d46;fill-opacity:1;stroke-width:0.264583"
         d="m 386.77585,26.080366 q -0.84667,0 -1.55222,-0.423333 -0.70556,-0.423333 -1.12889,-1.298221 -0.40922,-0.874888 -0.40922,-2.158998 0,-1.199444 0.49388,-2.187221 0.49389,-0.987777 1.41111,-1.552221 0.93134,-0.578555 2.18722,-0.578555 0.71967,0 1.31234,0.155222 v -2.638776 l -1.43933,-0.169333 v -0.606777 l 2.53999,-0.254 h 0.0423 l 0.31044,0.225778 v 10.611547 h 0.81844 v 0.649111 q -0.45155,0.09878 -0.79022,0.155222 -0.32455,0.05644 -0.69144,0.05644 -0.36689,0 -0.52211,-0.127 -0.15522,-0.127 -0.15522,-0.536222 v -0.451555 q -0.39511,0.479778 -1.04423,0.804333 -0.63499,0.324555 -1.38288,0.324555 z m 0.56444,-1.001888 q 0.55033,0 1.03011,-0.239889 0.47978,-0.253999 0.71967,-0.578555 v -5.164662 q -0.11289,-0.169334 -0.53622,-0.296333 -0.40923,-0.141111 -0.87489,-0.141111 -1.10067,0 -1.76389,0.846666 -0.64911,0.832555 -0.64911,2.582331 0,1.523999 0.57855,2.257776 0.57856,0.733777 1.49578,0.733777 z" />
      <path
         id="path933"
         style="font-size:14.1111px;fill:#723d46;fill-opacity:1;stroke-width:0.264583"
         d="m 392.49218,23.808479 q 0,-1.326443 1.32644,-1.947332 1.32644,-0.634999 3.35844,-0.677332 v -0.395111 q 0,-0.663222 -0.14111,-1.044222 -0.14111,-0.380999 -0.49389,-0.550333 -0.33866,-0.183444 -0.97366,-0.183444 -0.71967,0 -1.29822,0.211667 -0.56445,0.197555 -1.12889,0.493888 l -0.35278,-0.733777 q 0.18344,-0.155222 0.67733,-0.409222 0.49389,-0.254 1.143,-0.451555 0.64911,-0.197556 1.29822,-0.197556 1.00189,0 1.58045,0.282222 0.59266,0.268111 0.84666,0.874889 0.254,0.606777 0.254,1.622776 V 25.2337 h 0.83256 v 0.620889 q -0.28222,0.07055 -0.71967,0.141111 -0.42333,0.07056 -0.74789,0.07056 -0.39511,0 -0.53622,-0.127 -0.14111,-0.112889 -0.14111,-0.52211 v -0.465667 q -0.42333,0.423333 -1.04422,0.776111 -0.60678,0.352777 -1.38289,0.352777 -1.016,0 -1.69333,-0.578555 -0.66322,-0.592666 -0.66322,-1.693332 z m 2.96333,1.312332 q 0.36689,0 0.84666,-0.225777 0.47978,-0.225778 0.87489,-0.536222 v -2.427109 q -1.53811,0 -2.32833,0.479777 -0.77611,0.465667 -0.77611,1.227666 0,0.761999 0.36689,1.128888 0.381,0.352777 1.016,0.352777 z m -0.84667,-8.875882 2.25778,-2.808108 1.07244,0.90311 q -0.29633,0.479777 -1.27,1.312332 -0.97366,0.832555 -1.50988,1.058333 z" />
      <path
         id="path935"
         style="font-size:14.1111px;fill:#723d46;fill-opacity:1;stroke-width:0.264583"
         d="m 399.75299,18.093484 h 3.27378 v 0.663221 l -1.00189,0.183445 1.42522,4.063996 0.59267,1.79211 0.508,-1.735665 1.42522,-4.120441 -0.95956,-0.183445 v -0.663221 h 2.86456 v 0.663221 l -0.73378,0.183445 -2.72344,7.097883 h -1.19945 l -2.83633,-7.097883 -0.635,-0.183445 z" />
      <path
         id="path937"
         style="font-size:14.1111px;fill:#723d46;fill-opacity:1;stroke-width:0.264583"
         d="m 411.89361,26.080366 q -1.70745,0 -2.61056,-1.114777 -0.889,-1.114777 -0.889,-2.977442 0,-1.227665 0.46567,-2.158998 0.46567,-0.931333 1.29822,-1.439332 0.84667,-0.508 1.91911,-0.508 1.31233,0 2.032,0.733777 0.73378,0.719666 0.77611,2.074332 0,0.860777 -0.0988,1.312332 h -4.85422 q 0.0282,1.396999 0.64912,2.257776 0.62088,0.846666 1.76388,0.846666 0.56445,0 1.17122,-0.197555 0.62089,-0.211667 0.95956,-0.493889 l 0.26811,0.620889 q -0.40922,0.423333 -1.21355,0.733777 -0.80434,0.310444 -1.63689,0.310444 z m 1.43933,-4.825996 q 0.0423,-0.296333 0.0423,-0.606777 -0.0141,-0.917222 -0.39511,-1.439332 -0.36689,-0.536222 -1.17122,-0.536222 -0.81844,0 -1.31233,0.592666 -0.47978,0.592666 -0.55033,1.989665 z" />
      <path
         id="path939"
         style="font-size:14.1111px;fill:#723d46;fill-opacity:1;stroke-width:0.264583"
         d="m 417.77684,16.682374 q -0.45156,0 -0.67733,-0.254 -0.22578,-0.254 -0.22578,-0.649111 0,-0.451555 0.26811,-0.747888 0.28222,-0.296333 0.762,-0.296333 0.47978,0 0.70555,0.254 0.22578,0.253999 0.22578,0.64911 0,0.479778 -0.28222,0.762 -0.26811,0.282222 -0.762,0.282222 z m -0.56444,2.497664 -1.07245,-0.254 V 18.17815 l 2.18722,-0.268111 h 0.0282 l 0.32456,0.254 v 6.956772 l 1.12889,0.112889 v 0.691444 H 416.0694 V 25.2337 l 1.143,-0.127 z" />
      <path
         id="path941"
         style="font-size:14.1111px;fill:#723d46;fill-opacity:1;stroke-width:0.264583"
         d="m 422.13695,24.796256 q 0.14111,0.211667 0.59267,0.381 0.46567,0.169333 0.97366,0.169333 0.80434,0 1.18534,-0.310444 0.381,-0.310444 0.381,-0.860777 0,-0.381 -0.23989,-0.663222 -0.23989,-0.282222 -0.67733,-0.493888 -0.42334,-0.225778 -1.22767,-0.536222 -1.08655,-0.409222 -1.59455,-0.973666 -0.49389,-0.578555 -0.49389,-1.509888 0,-0.620888 0.36689,-1.086555 0.381,-0.465666 1.03011,-0.719666 0.66322,-0.268111 1.46755,-0.268111 0.64911,0 1.12889,0.09878 0.49389,0.09878 0.79022,0.197555 0.29633,0.09878 0.39511,0.127 v 1.749777 h -0.86078 l -0.28222,-1.044222 q -0.0847,-0.169333 -0.45155,-0.282222 -0.36689,-0.127 -0.81845,-0.127 -0.635,0 -1.03011,0.282222 -0.381,0.282223 -0.381,0.762 0,0.423333 0.19756,0.705555 0.21166,0.268111 0.52211,0.437444 0.31044,0.169333 0.84666,0.395111 l 0.28223,0.112889 q 0.79022,0.310444 1.28411,0.592666 0.49389,0.282222 0.81844,0.747888 0.33867,0.451555 0.33867,1.114777 0,1.044221 -0.81845,1.66511 -0.80433,0.620888 -2.21544,0.620888 -0.69144,0 -1.45344,-0.183444 -0.74789,-0.197555 -1.22767,-0.395111 V 23.69559 h 0.91722 z" />
      <path
         id="path943"
         style="font-size:14.1111px;fill:#723d46;fill-opacity:1;stroke-width:0.264583"
         d="m 235.25681,43.719242 q -1.70744,0 -2.61055,-1.114777 -0.889,-1.114777 -0.889,-2.977443 0,-1.227665 0.46567,-2.158998 0.46566,-0.931332 1.29822,-1.439332 0.84666,-0.508 1.91911,-0.508 1.31233,0 2.032,0.733778 0.73377,0.719666 0.77611,2.074331 0,0.860777 -0.0988,1.312333 h -4.85422 q 0.0282,1.396999 0.64911,2.257776 0.62089,0.846666 1.76389,0.846666 0.56444,0 1.17122,-0.197556 0.62089,-0.211666 0.95955,-0.493888 l 0.26811,0.620888 q -0.40922,0.423333 -1.21355,0.733777 -0.80433,0.310445 -1.63689,0.310445 z m 1.43933,-4.825997 q 0.0423,-0.296333 0.0423,-0.606777 -0.0141,-0.917222 -0.39511,-1.439332 -0.36689,-0.536222 -1.17122,-0.536222 -0.81845,0 -1.31234,0.592666 -0.47977,0.592666 -0.55033,1.989665 z" />
      <path
         id="path945"
         style="font-size:14.1111px;fill:#723d46;fill-opacity:1;stroke-width:0.264583"
         d="m 244.12211,42.435131 q 0.14111,0.211667 0.59267,0.381 0.46566,0.169333 0.97366,0.169333 0.80434,0 1.18534,-0.310444 0.381,-0.310444 0.381,-0.860777 0,-0.381 -0.23989,-0.663222 -0.23989,-0.282222 -0.67734,-0.493888 -0.42333,-0.225778 -1.22766,-0.536222 -1.08656,-0.409222 -1.59456,-0.973666 -0.49388,-0.578555 -0.49388,-1.509888 0,-0.620888 0.36688,-1.086554 0.381,-0.465667 1.03011,-0.719666 0.66323,-0.268111 1.46756,-0.268111 0.64911,0 1.12889,0.09878 0.49389,0.09878 0.79022,0.197556 0.29633,0.09878 0.39511,0.127 v 1.749776 h -0.86078 l -0.28222,-1.044221 q -0.0847,-0.169334 -0.45155,-0.282222 -0.36689,-0.127 -0.81845,-0.127 -0.635,0 -1.03011,0.282222 -0.381,0.282222 -0.381,0.761999 0,0.423333 0.19756,0.705555 0.21166,0.268111 0.52211,0.437444 0.31044,0.169333 0.84666,0.395111 l 0.28223,0.112889 q 0.79022,0.310444 1.28411,0.592666 0.49388,0.282222 0.81844,0.747888 0.33867,0.451556 0.33867,1.114777 0,1.044222 -0.81845,1.66511 -0.80433,0.620889 -2.21544,0.620889 -0.69144,0 -1.45344,-0.183445 -0.74789,-0.197555 -1.22767,-0.395111 v -1.80622 h 0.91722 z" />
      <path
         id="path947"
         style="font-size:14.1111px;fill:#723d46;fill-opacity:1;stroke-width:0.264583"
         d="m 249.94801,41.447354 q 0,-1.326443 1.32644,-1.947331 1.32645,-0.635 3.35845,-0.677333 v -0.395111 q 0,-0.663222 -0.14112,-1.044221 -0.14111,-0.381 -0.49388,-0.550333 -0.33867,-0.183445 -0.97367,-0.183445 -0.71967,0 -1.29822,0.211667 -0.56444,0.197555 -1.12889,0.493888 l -0.35278,-0.733777 q 0.18345,-0.155222 0.67734,-0.409222 0.49389,-0.254 1.143,-0.451555 0.64911,-0.197555 1.29822,-0.197555 1.00189,0 1.58044,0.282222 0.59267,0.268111 0.84667,0.874888 0.254,0.606777 0.254,1.622776 v 4.529664 h 0.83255 v 0.620888 q -0.28222,0.07055 -0.71967,0.141111 -0.42333,0.07055 -0.74788,0.07055 -0.39511,0 -0.53623,-0.126999 -0.14111,-0.112889 -0.14111,-0.522111 v -0.465666 q -0.42333,0.423333 -1.04422,0.77611 -0.60678,0.352778 -1.38289,0.352778 -1.01599,0 -1.69333,-0.578556 -0.66322,-0.592666 -0.66322,-1.693332 z m 2.96333,1.312333 q 0.36689,0 0.84667,-0.225778 0.47978,-0.225777 0.87489,-0.536222 v -2.427109 q -1.53811,0 -2.32834,0.479777 -0.77611,0.465667 -0.77611,1.227666 0,0.762 0.36689,1.128888 0.381,0.352778 1.016,0.352778 z" />
      <path
         id="path949"
         style="font-size:14.1111px;fill:#723d46;fill-opacity:1;stroke-width:0.264583"
         d="m 257.19472,32.275139 2.25778,-0.268111 h 0.0282 l 0.32456,0.211667 v 4.247441 q 0.42333,-0.409222 1.00188,-0.677333 0.59267,-0.268111 1.31234,-0.268111 0.84666,0 1.53811,0.409222 0.70555,0.409222 1.11477,1.269999 0.42334,0.860777 0.42334,2.17311 0,1.213554 -0.508,2.201331 -0.49389,0.987777 -1.42522,1.566332 -0.93134,0.578556 -2.159,0.578556 -0.97367,0 -1.778,-0.183445 -0.80433,-0.197555 -0.97367,-0.352777 V 33.023028 l -1.15711,-0.155223 z m 4.34622,4.247441 q -0.53622,0 -1.00189,0.254 -0.45155,0.239889 -0.73377,0.550333 v 5.192885 q 0.0847,0.197555 0.47977,0.324555 0.40922,0.112889 0.91722,0.112889 1.08656,0 1.74978,-0.874888 0.66322,-0.874888 0.66322,-2.554109 0,-1.509888 -0.57855,-2.257776 -0.57856,-0.747889 -1.49578,-0.747889 z" />
      <path
         id="path951"
         style="font-size:14.1111px;fill:#723d46;fill-opacity:1;stroke-width:0.264583"
         d="m 266.42933,39.627022 q 0,-1.269999 0.52211,-2.201331 0.52212,-0.931333 1.36878,-1.41111 0.86078,-0.493889 1.83444,-0.493889 1.778,0 2.667,1.128888 0.90311,1.128888 0.90311,2.963331 0,1.284111 -0.52211,2.215443 -0.52211,0.931333 -1.38289,1.41111 -0.84666,0.479778 -1.82033,0.479778 -1.778,0 -2.68111,-1.128888 -0.889,-1.128888 -0.889,-2.963332 z m 3.65478,3.287887 q 0.97366,0 1.49578,-0.804333 0.52211,-0.804333 0.52211,-2.384776 0,-1.566332 -0.47978,-2.483553 -0.47978,-0.917222 -1.53811,-0.917222 -0.97367,0 -1.50989,0.804333 -0.52211,0.804332 -0.52211,2.384776 0,1.566332 0.49389,2.483553 0.49389,0.917222 1.53811,0.917222 z" />
      <path
         id="path953"
         style="font-size:14.1111px;fill:#723d46;fill-opacity:1;stroke-width:0.264583"
         d="m 275.02895,42.872576 1.05833,-0.08467 v -5.968995 l -1.016,-0.254 v -0.762 l 1.94733,-0.253999 h 0.0282 l 0.31044,0.253999 v 0.254 l -0.0423,1.100666 h 0.0423 q 0.14111,-0.239889 0.508,-0.620888 0.36689,-0.381 0.94544,-0.691444 0.57856,-0.324556 1.25589,-0.324556 0.28222,0 0.46567,0.07056 v 1.580443 q -0.0988,-0.07056 -0.32456,-0.127 -0.21166,-0.07055 -0.47978,-0.07055 -1.17122,0 -2.1731,0.719666 v 5.079996 l 1.7921,0.112889 v 0.677332 h -4.31799 z" />
      <path
         id="path955"
         style="font-size:14.1111px;fill:#723d46;fill-opacity:1;stroke-width:0.264583"
         d="m 281.4775,39.627022 q 0,-1.269999 0.52211,-2.201331 0.52211,-0.931333 1.36878,-1.41111 0.86078,-0.493889 1.83444,-0.493889 1.778,0 2.667,1.128888 0.90311,1.128888 0.90311,2.963331 0,1.284111 -0.52211,2.215443 -0.52211,0.931333 -1.38289,1.41111 -0.84666,0.479778 -1.82033,0.479778 -1.778,0 -2.68111,-1.128888 -0.889,-1.128888 -0.889,-2.963332 z m 3.65478,3.287887 q 0.97366,0 1.49577,-0.804333 0.52211,-0.804333 0.52211,-2.384776 0,-1.566332 -0.47977,-2.483553 -0.47978,-0.917222 -1.53811,-0.917222 -0.97367,0 -1.50989,0.804333 -0.52211,0.804332 -0.52211,2.384776 0,1.566332 0.49389,2.483553 0.49389,0.917222 1.53811,0.917222 z" />
      <path
         id="path957"
         style="font-size:14.1111px;fill:#723d46;fill-opacity:1;stroke-width:0.264583"
         d="m 291.36123,42.435131 q 0.14111,0.211667 0.59266,0.381 0.46567,0.169333 0.97367,0.169333 0.80433,0 1.18533,-0.310444 0.381,-0.310444 0.381,-0.860777 0,-0.381 -0.23989,-0.663222 -0.23989,-0.282222 -0.67733,-0.493888 -0.42333,-0.225778 -1.22767,-0.536222 -1.08655,-0.409222 -1.59455,-0.973666 -0.49389,-0.578555 -0.49389,-1.509888 0,-0.620888 0.36689,-1.086554 0.381,-0.465667 1.03011,-0.719666 0.66322,-0.268111 1.46755,-0.268111 0.64911,0 1.12889,0.09878 0.49389,0.09878 0.79022,0.197556 0.29634,0.09878 0.39511,0.127 v 1.749776 h -0.86077 l -0.28222,-1.044221 q -0.0847,-0.169334 -0.45156,-0.282222 -0.36689,-0.127 -0.81844,-0.127 -0.635,0 -1.03011,0.282222 -0.381,0.282222 -0.381,0.761999 0,0.423333 0.19755,0.705555 0.21167,0.268111 0.52211,0.437444 0.31045,0.169333 0.84667,0.395111 l 0.28222,0.112889 q 0.79022,0.310444 1.28411,0.592666 0.49389,0.282222 0.81844,0.747888 0.33867,0.451556 0.33867,1.114777 0,1.044222 -0.81844,1.66511 -0.80434,0.620889 -2.21545,0.620889 -0.69144,0 -1.45344,-0.183445 -0.74789,-0.197555 -1.22766,-0.395111 v -1.80622 h 0.91722 z" />
      <path
         id="path959"
         style="font-size:14.1111px;fill:#723d46;fill-opacity:1;stroke-width:0.264583"
         d="m 297.18712,41.447354 q 0,-1.326443 1.32645,-1.947331 1.32644,-0.635 3.35844,-0.677333 v -0.395111 q 0,-0.663222 -0.14111,-1.044221 -0.14111,-0.381 -0.49389,-0.550333 -0.33867,-0.183445 -0.97367,-0.183445 -0.71966,0 -1.29822,0.211667 -0.56444,0.197555 -1.12889,0.493888 l -0.35277,-0.733777 q 0.18344,-0.155222 0.67733,-0.409222 0.49389,-0.254 1.143,-0.451555 0.64911,-0.197555 1.29822,-0.197555 1.00189,0 1.58044,0.282222 0.59267,0.268111 0.84667,0.874888 0.254,0.606777 0.254,1.622776 v 4.529664 h 0.83255 v 0.620888 q -0.28222,0.07055 -0.71966,0.141111 -0.42334,0.07055 -0.74789,0.07055 -0.39511,0 -0.53622,-0.126999 -0.14111,-0.112889 -0.14111,-0.522111 v -0.465666 q -0.42334,0.423333 -1.04422,0.77611 -0.60678,0.352778 -1.38289,0.352778 -1.016,0 -1.69333,-0.578556 -0.66323,-0.592666 -0.66323,-1.693332 z m 2.96333,1.312333 q 0.36689,0 0.84667,-0.225778 0.47978,-0.225777 0.87489,-0.536222 v -2.427109 q -1.53811,0 -2.32833,0.479777 -0.77611,0.465667 -0.77611,1.227666 0,0.762 0.36689,1.128888 0.381,0.352778 1.01599,0.352778 z" />
      <path
         id="path961"
         style="font-size:14.1111px;fill:#723d46;fill-opacity:1;stroke-width:0.264583"
         d="m 306.40939,42.435131 q 0.14111,0.211667 0.59267,0.381 0.46566,0.169333 0.97366,0.169333 0.80434,0 1.18534,-0.310444 0.381,-0.310444 0.381,-0.860777 0,-0.381 -0.23989,-0.663222 -0.23989,-0.282222 -0.67734,-0.493888 -0.42333,-0.225778 -1.22766,-0.536222 -1.08656,-0.409222 -1.59456,-0.973666 -0.49388,-0.578555 -0.49388,-1.509888 0,-0.620888 0.36688,-1.086554 0.381,-0.465667 1.03011,-0.719666 0.66323,-0.268111 1.46756,-0.268111 0.64911,0 1.12889,0.09878 0.49388,0.09878 0.79022,0.197556 0.29633,0.09878 0.39511,0.127 v 1.749776 h -0.86078 l -0.28222,-1.044221 q -0.0847,-0.169334 -0.45156,-0.282222 -0.36688,-0.127 -0.81844,-0.127 -0.635,0 -1.03011,0.282222 -0.381,0.282222 -0.381,0.761999 0,0.423333 0.19756,0.705555 0.21166,0.268111 0.52211,0.437444 0.31044,0.169333 0.84666,0.395111 l 0.28222,0.112889 q 0.79023,0.310444 1.28411,0.592666 0.49389,0.282222 0.81845,0.747888 0.33867,0.451556 0.33867,1.114777 0,1.044222 -0.81845,1.66511 -0.80433,0.620889 -2.21544,0.620889 -0.69145,0 -1.45344,-0.183445 -0.74789,-0.197555 -1.22767,-0.395111 v -1.80622 h 0.91722 z" />
    </g>
  </g>
</svg>
